<?xml version="1.0" encoding="UTF-8"?>
<svg version="1.1" xmlns="http://www.w3.org/2000/svg" width="416" height="128">
<path d="M0 0 C7.4147857 3.34479355 13.91438573 10.20426203 16.828125 17.76953125 C18.91321685 26.43367067 18.40075349 34.55362925 13.8671875 42.26953125 C13.40183594 42.96691406 12.93648437 43.66429687 12.45703125 44.3828125 C12.08449219 44.96675781 11.71195313 45.55070312 11.328125 46.15234375 C7.45134671 51.48797937 0.90782893 55.17405882 -5.54296875 56.3828125 C-14.93798224 57.29830104 -22.82617998 55.53335714 -30.35546875 49.6953125 C-35.75320077 44.68039835 -39.12691969 38.03437739 -39.78125 30.71875 C-39.94250215 24.2856381 -39.27128292 19.47397262 -36.515625 13.63671875 C-34.87660833 9.83867611 -34.21982526 7.35224298 -35.54296875 3.3828125 C-33.54296875 1.3828125 -33.54296875 1.3828125 -31.3359375 1.2578125 C-29.60675285 1.34077188 -27.87758594 1.42410183 -26.1484375 1.5078125 C-23.52258175 1.53027654 -23.52258175 1.53027654 -21.20703125 0.40625 C-15.07137491 -1.95084965 -6.3306879 -1.53648032 0 0 Z " fill="#FACC17" transform="translate(224.54296875,33.6171875)"/>
<path d="M0 0 C3 0.25 3 0.25 5 2.25 C5.17546482 5.26308951 5.23127445 8.18310454 5.1953125 11.1953125 C5.1924826 12.0803244 5.18965271 12.9653363 5.18673706 13.87716675 C5.1755224 16.70991412 5.1504157 19.54234784 5.125 22.375 C5.11497185 24.29296419 5.10584572 26.21093333 5.09765625 28.12890625 C5.07727854 32.8361562 5.03813273 37.5427261 5 42.25 C11.6 42.25 18.2 42.25 25 42.25 C26.13179687 39.38570312 27.26359375 36.52140625 28.4296875 33.5703125 C29.52723813 30.8030516 30.62656797 28.03650389 31.72607422 25.27001953 C32.49031018 23.3443268 33.25268908 21.41789602 34.01318359 19.49072266 C35.10549409 16.72363101 36.20441651 13.95924683 37.3046875 11.1953125 C37.6443454 10.3306839 37.9840033 9.4660553 38.33395386 8.57522583 C38.65413483 7.77454681 38.9743158 6.9738678 39.30419922 6.14892578 C39.58399628 5.4427713 39.86379333 4.73661682 40.15206909 4.00906372 C41 2.25 41 2.25 43 0.25 C47.05261287 -0.09490322 48.54754176 -0.05163882 52 2.25 C53.07348185 4.70786282 54.00217715 7.09759596 54.875 9.625 C55.40189718 11.09047364 55.93055802 12.55531431 56.4609375 14.01953125 C56.72100586 14.74221191 56.98107422 15.46489258 57.24902344 16.20947266 C58.2555179 18.94428434 59.36499151 21.62875413 60.5 24.3125 C60.89574219 25.25351562 61.29148437 26.19453125 61.69921875 27.1640625 C62.39846064 28.82292465 63.09799367 30.48166494 63.79931641 32.13964844 C64.64602338 34.15198379 65.48014693 36.16919104 66.3125 38.1875 C66.57933594 38.81470947 66.84617187 39.44191895 67.12109375 40.08813477 C68.55591816 43.59543087 69.41256654 46.45298929 69 50.25 C68 51.25 68 51.25 64.75 51.4375 C61 50.25 61 50.25 59.42578125 48.0234375 C56 41.21113897 56 41.21113897 56 38.25 C50.06 38.25 44.12 38.25 38 38.25 C37.154375 40.209375 36.30875 42.16875 35.4375 44.1875 C33.99609375 47.52734375 33.99609375 47.52734375 32 50.25 C24.97256388 51.6970456 17.83042807 51.43386862 10.6875 51.4375 C9.40037109 51.44974609 8.11324219 51.46199219 6.78710938 51.47460938 C4.94922852 51.47750977 4.94922852 51.47750977 3.07421875 51.48046875 C1.95619873 51.48457764 0.83817871 51.48868652 -0.3137207 51.49291992 C-3 51.25 -3 51.25 -5 49.25 C-5.25396729 47.23864746 -5.25396729 47.23864746 -5.25878906 44.74023438 C-5.26509338 43.80586548 -5.27139771 42.87149658 -5.27789307 41.90881348 C-5.2738446 40.89734253 -5.26979614 39.88587158 -5.265625 38.84375 C-5.26753845 37.80810913 -5.2694519 36.77246826 -5.27142334 35.70544434 C-5.27278597 33.51309975 -5.26908414 31.32074711 -5.26074219 29.12841797 C-5.25004392 25.76381384 -5.26063503 22.39974368 -5.2734375 19.03515625 C-5.27211592 16.90885298 -5.26955356 14.78255005 -5.265625 12.65625 C-5.26967346 11.64477905 -5.27372192 10.63330811 -5.27789307 9.59118652 C-5.27158875 8.65681763 -5.26528442 7.72244873 -5.25878906 6.75976562 C-5.25719788 5.93528931 -5.25560669 5.11081299 -5.25396729 4.26135254 C-4.80563585 0.71068823 -3.39091556 0.2825763 0 0 Z M46 13.25 C44.99802294 15.89510016 43.99833079 18.54102402 43 21.1875 C42.71382812 21.94224609 42.42765625 22.69699219 42.1328125 23.47460938 C40.65450732 26.77711984 40.65450732 26.77711984 40 30.25 C44.29 30.25 48.58 30.25 53 30.25 C51.02 24.64 49.04 19.03 47 13.25 C46.67 13.25 46.34 13.25 46 13.25 Z " fill="#A9A9A9" transform="translate(59,34.75)"/>
<path d="M0 0 C1.90175958 2.30927949 3.14155319 4.15248116 4.5 6.75 C4.87382812 7.41725098 5.24765625 8.08450195 5.6328125 8.77197266 C6.78080803 10.83514319 7.89282493 12.91468895 9 15 C9.69678946 16.28446629 10.39465998 17.56834688 11.09375 18.8515625 C12.30857276 21.08843674 13.50317142 23.33242339 14.6875 25.5859375 C15.78875446 27.8832452 15.78875446 27.8832452 17 29 C17.4031543 28.23333008 17.80630859 27.46666016 18.22167969 26.67675781 C19.72918309 23.81847594 21.24323043 20.96378726 22.76171875 18.11132812 C23.41603328 16.87899266 24.06776562 15.6452824 24.71679688 14.41015625 C25.65325319 12.62916571 26.59996567 10.85357999 27.546875 9.078125 C28.39523926 7.47565918 28.39523926 7.47565918 29.26074219 5.84082031 C30.95165634 3.07896222 32.51259867 1.06526712 35 -1 C38.125 -1.375 38.125 -1.375 41 -1 C43.41787996 1.41787996 43.25207276 1.98980188 43.25878906 5.29443359 C43.26509338 6.1823056 43.27139771 7.07017761 43.27789307 7.98495483 C43.2738446 8.94640411 43.26979614 9.90785339 43.265625 10.8984375 C43.26849518 12.37819565 43.26849518 12.37819565 43.27142334 13.8878479 C43.2727861 15.97764338 43.26908334 18.06744729 43.26074219 20.15722656 C43.25006673 23.35501189 43.26062277 26.5522325 43.2734375 29.75 C43.27211548 31.77864707 43.26955219 33.8072938 43.265625 35.8359375 C43.26967346 36.79333832 43.27372192 37.75073914 43.27789307 38.7371521 C43.27158875 39.63132843 43.26528442 40.52550476 43.25878906 41.44677734 C43.25719788 42.23128265 43.25560669 43.01578796 43.25396729 43.82406616 C42.97038162 46.25376352 42.20971342 47.8907128 41 50 C38.69 49.67 36.38 49.34 34 49 C32.96025501 45.58934861 32.88491494 42.47735158 32.90234375 38.921875 C32.90556641 37.76171875 32.90878906 36.6015625 32.91210938 35.40625 C32.92467773 33.59640625 32.92467773 33.59640625 32.9375 31.75 C32.94201172 30.52796875 32.94652344 29.3059375 32.95117188 28.046875 C32.96295185 25.03120054 32.97940147 22.01562502 33 19 C32.65219482 19.65597168 32.30438965 20.31194336 31.94604492 20.98779297 C30.36756885 23.95437086 28.77770233 26.91469256 27.1875 29.875 C26.64029297 30.90753906 26.09308594 31.94007812 25.52929688 33.00390625 C24.99755859 33.99003906 24.46582031 34.97617188 23.91796875 35.9921875 C23.43094482 36.90339355 22.9439209 37.81459961 22.44213867 38.75341797 C21 41 21 41 18 43 C15.36156678 42.81556583 14.32500701 42.35898897 12.54296875 40.390625 C8.350568 33.7697731 4.64148723 26.93455103 1 20 C0.98018066 20.83772949 0.96036133 21.67545898 0.93994141 22.53857422 C0.86189388 25.64365834 0.77520365 28.74834539 0.68261719 31.85302734 C0.62545964 33.85886971 0.57831404 35.86498918 0.53125 37.87109375 C0.47324219 39.75634766 0.47324219 39.75634766 0.4140625 41.6796875 C0.3826416 42.84226074 0.3512207 44.00483398 0.31884766 45.20263672 C0 48 0 48 -2 50 C-5.0625 50.1875 -5.0625 50.1875 -8 50 C-9 49 -9 49 -9.12025452 47.01951599 C-9.11803391 46.15125687 -9.11581329 45.28299774 -9.11352539 44.38842773 C-9.11344986 43.40748642 -9.11337433 42.4265451 -9.11329651 41.4158783 C-9.10813522 40.3492244 -9.10297394 39.2825705 -9.09765625 38.18359375 C-9.0962413 37.0974025 -9.09482635 36.01121124 -9.09336853 34.8921051 C-9.08775048 31.40720925 -9.07519492 27.92237658 -9.0625 24.4375 C-9.05748733 22.08138113 -9.05292402 19.72526126 -9.04882812 17.36914062 C-9.03777519 11.57940536 -9.02101951 5.78970719 -9 0 C-5.70843331 -1.64578334 -3.48396024 -0.9379893 0 0 Z " fill="#171717" transform="translate(141,36)"/>
<path d="M0 0 C8.34503478 6.68349541 14.42146765 17.58294662 20.61474609 26.17163086 C22.01434191 28.10540465 22.01434191 28.10540465 24 30 C23.99214478 28.79670044 23.99214478 28.79670044 23.98413086 27.5690918 C23.96337103 23.94190247 23.95034298 20.31472563 23.9375 16.6875 C23.92912109 15.42486328 23.92074219 14.16222656 23.91210938 12.86132812 C23.90888672 11.65283203 23.90566406 10.44433594 23.90234375 9.19921875 C23.89448853 7.52605591 23.89448853 7.52605591 23.88647461 5.8190918 C24 3 24 3 25 0 C28.375 -0.625 28.375 -0.625 32 -1 C34.41787996 1.41787996 34.25207276 1.98980188 34.25878906 5.29443359 C34.26509338 6.1823056 34.27139771 7.07017761 34.27789307 7.98495483 C34.2738446 8.94640411 34.26979614 9.90785339 34.265625 10.8984375 C34.26849518 12.37819565 34.26849518 12.37819565 34.27142334 13.8878479 C34.2727861 15.97764338 34.26908334 18.06744729 34.26074219 20.15722656 C34.25006673 23.35501189 34.26062277 26.5522325 34.2734375 29.75 C34.27211548 31.77864707 34.26955219 33.8072938 34.265625 35.8359375 C34.26967346 36.79333832 34.27372192 37.75073914 34.27789307 38.7371521 C34.27158875 39.63132843 34.26528442 40.52550476 34.25878906 41.44677734 C34.25719788 42.23128265 34.25560669 43.01578796 34.25396729 43.82406616 C33.97038162 46.25376352 33.20971342 47.8907128 32 50 C27.09031551 49.5791699 25.18501402 47.65111364 22 44 C21.07933037 42.80096861 20.16998864 41.59319012 19.26953125 40.37890625 C15.92436995 35.8911442 12.52877805 31.44339352 9.125 27 C8.53203125 26.22527344 7.9390625 25.45054688 7.328125 24.65234375 C5.88576106 22.76796506 4.44304814 20.88385475 3 19 C2.98541748 19.86802246 2.97083496 20.73604492 2.95581055 21.63037109 C2.89479889 24.84738879 2.82065609 28.06375663 2.73754883 31.28027344 C2.70427127 32.67306089 2.67624803 34.06598411 2.65356445 35.45898438 C2.62007311 37.45991378 2.56618695 39.46046921 2.51171875 41.4609375 C2.48553467 42.66540527 2.45935059 43.86987305 2.43237305 45.11083984 C2.28968994 46.0642627 2.14700684 47.01768555 2 48 C-1 50 -1 50 -3.625 49.6875 C-6 49 -6 49 -7 48 C-7.09311889 46.49581261 -7.11746028 44.98728644 -7.11352539 43.48022461 C-7.11344986 42.51930405 -7.11337433 41.55838348 -7.11329651 40.56834412 C-7.10813522 39.523564 -7.10297394 38.47878387 -7.09765625 37.40234375 C-7.0962413 36.33834854 -7.09482635 35.27435333 -7.09336853 34.17811584 C-7.08775064 30.76454917 -7.07519511 27.351047 -7.0625 23.9375 C-7.05748731 21.62955824 -7.052924 19.32161545 -7.04882812 17.01367188 C-7.0377754 11.34242574 -7.02101987 5.67121747 -7 0 C-4.25410456 -1.37294772 -2.90619397 -0.86791313 0 0 Z " fill="#1C1C1C" transform="translate(251,36)"/>
<path d="M0 0 C7.4147857 3.34479355 13.91438573 10.20426203 16.828125 17.76953125 C18.91321685 26.43367067 18.40075349 34.55362925 13.8671875 42.26953125 C13.40183594 42.96691406 12.93648437 43.66429687 12.45703125 44.3828125 C12.08449219 44.96675781 11.71195313 45.55070312 11.328125 46.15234375 C7.45134671 51.48797937 0.90782893 55.17405882 -5.54296875 56.3828125 C-14.93798224 57.29830104 -22.82617998 55.53335714 -30.35546875 49.6953125 C-35.75320077 44.68039835 -39.12691969 38.03437739 -39.78125 30.71875 C-39.94250215 24.2856381 -39.27128292 19.47397262 -36.515625 13.63671875 C-34.87660833 9.83867611 -34.21982526 7.35224298 -35.54296875 3.3828125 C-33.54296875 1.3828125 -33.54296875 1.3828125 -31.3359375 1.2578125 C-29.60675285 1.34077188 -27.87758594 1.42410183 -26.1484375 1.5078125 C-23.52258175 1.53027654 -23.52258175 1.53027654 -21.20703125 0.40625 C-15.07137491 -1.95084965 -6.3306879 -1.53648032 0 0 Z M-20.54296875 3.3828125 C-20.21296875 4.7028125 -19.88296875 6.0228125 -19.54296875 7.3828125 C-18.41117188 7.44339844 -17.279375 7.50398438 -16.11328125 7.56640625 C-14.6314973 7.65081167 -13.14972715 7.73545967 -11.66796875 7.8203125 C-10.54841797 7.87928711 -10.54841797 7.87928711 -9.40625 7.93945312 C-3.76953125 8.26953125 -3.76953125 8.26953125 -1.54296875 9.3828125 C-4.61914062 9.67578125 -4.61914062 9.67578125 -7.6953125 9.96875 C-8.30503906 10.10539062 -8.91476563 10.24203125 -9.54296875 10.3828125 C-11.07043265 13.4377403 -10.78288707 16.6591439 -10.859375 20.015625 C-10.8801561 20.76746063 -10.90093719 21.51929626 -10.92234802 22.29391479 C-10.9877958 24.69845335 -11.04670613 27.10310217 -11.10546875 29.5078125 C-11.14865852 31.13673021 -11.19227296 32.76563672 -11.23632812 34.39453125 C-11.34347226 38.39051165 -11.44475308 42.38660309 -11.54296875 46.3828125 C-14.91796875 46.5078125 -14.91796875 46.5078125 -18.54296875 46.3828125 C-19.20296875 45.7228125 -19.86296875 45.0628125 -20.54296875 44.3828125 C-21.86296875 44.3828125 -23.18296875 44.3828125 -24.54296875 44.3828125 C-24.64609375 43.8259375 -24.74921875 43.2690625 -24.85546875 42.6953125 C-25.41456914 40.30174915 -25.41456914 40.30174915 -27.07421875 38.4140625 C-29.27966584 33.86239511 -28.86099108 29.55358796 -28.73046875 24.5703125 C-28.71016602 23.10174805 -28.71016602 23.10174805 -28.68945312 21.60351562 C-28.65422187 19.19604625 -28.6049614 16.78971686 -28.54296875 14.3828125 C-27.22296875 14.3828125 -25.90296875 14.3828125 -24.54296875 14.3828125 C-22.23509763 11.55819182 -22.23509763 11.55819182 -22.66796875 8.3203125 C-23.24717555 5.3429304 -23.24717555 5.3429304 -25.29296875 4.0078125 C-27.80585021 3.30978987 -29.94669964 3.23857533 -32.54296875 3.3828125 C-32.50816406 3.99769531 -32.47335938 4.61257812 -32.4375 5.24609375 C-32.41042969 6.05433594 -32.38335937 6.86257812 -32.35546875 7.6953125 C-32.32066406 8.49582031 -32.28585938 9.29632813 -32.25 10.12109375 C-32.61142735 12.91131287 -33.48757461 13.55351171 -35.54296875 15.3828125 C-38.4494436 22.57251345 -38.52959169 30.68297649 -36.54296875 38.1328125 C-36.21296875 38.8753125 -35.88296875 39.6178125 -35.54296875 40.3828125 C-34.88296875 40.3828125 -34.22296875 40.3828125 -33.54296875 40.3828125 C-33.39859375 41.2490625 -33.25421875 42.1153125 -33.10546875 43.0078125 C-30.54013196 48.54893997 -25.47765582 51.01978249 -20.0703125 53.53125 C-12.65106074 56.03109063 -5.09470913 54.50851065 1.99609375 51.6640625 C5.67161881 49.7504558 7.86316082 47.60762438 10.45703125 44.3828125 C10.45703125 43.7228125 10.45703125 43.0628125 10.45703125 42.3828125 C11.11703125 42.3828125 11.77703125 42.3828125 12.45703125 42.3828125 C16.86440457 35.77175252 16.16194779 27.05679027 15.45703125 19.3828125 C13.55277943 13.48948144 9.88197892 8.49586264 4.45703125 5.3828125 C-3.43788782 1.59723616 -12.459015 -1.22080581 -20.54296875 3.3828125 Z " fill="#FCED52" transform="translate(224.54296875,33.6171875)"/>
<path d="M0 0 C1.20446777 0.01047363 2.40893555 0.02094727 3.64990234 0.03173828 C5.60283203 0.04140625 5.60283203 0.04140625 7.59521484 0.05126953 C8.9754258 0.06798149 10.35563413 0.08491139 11.73583984 0.10205078 C13.12385436 0.11208072 14.51187574 0.12120655 15.89990234 0.12939453 C19.3037201 0.15303215 22.70719491 0.18598211 26.11083984 0.22705078 C27.47707659 2.95952426 27.23926584 5.20903981 27.11083984 8.22705078 C25.49303827 9.84485235 23.65448467 9.44977226 21.41943359 9.54345703 C20.47519531 9.58535156 19.53095703 9.62724609 18.55810547 9.67041016 C17.06827148 9.72938477 17.06827148 9.72938477 15.54833984 9.78955078 C14.55125 9.83273438 13.55416016 9.87591797 12.52685547 9.92041016 C10.05502874 10.02685246 7.58295325 10.12748837 5.11083984 10.22705078 C5.11083984 13.52705078 5.11083984 16.82705078 5.11083984 20.22705078 C10.72083984 20.55705078 16.33083984 20.88705078 22.11083984 21.22705078 C23.11083984 27.22705078 23.11083984 27.22705078 22.11083984 29.22705078 C16.17083984 29.22705078 10.23083984 29.22705078 4.11083984 29.22705078 C4.11083984 33.51705078 4.11083984 37.80705078 4.11083984 42.22705078 C5.68736328 42.21544922 7.26388672 42.20384766 8.88818359 42.19189453 C10.94156783 42.18251835 12.99495334 42.17341797 15.04833984 42.16455078 C16.08925781 42.15617187 17.13017578 42.14779297 18.20263672 42.13916016 C19.19199219 42.1359375 20.18134766 42.13271484 21.20068359 42.12939453 C22.11712646 42.12415771 23.03356934 42.1189209 23.9777832 42.11352539 C26.11083984 42.22705078 26.11083984 42.22705078 27.11083984 43.22705078 C27.29833984 46.16455078 27.29833984 46.16455078 27.11083984 49.22705078 C25.11083984 51.22705078 25.11083984 51.22705078 22.23754883 51.4699707 C20.44039429 51.46380737 20.44039429 51.46380737 18.60693359 51.45751953 C17.30949219 51.45558594 16.01205078 51.45365234 14.67529297 51.45166016 C13.99861572 51.44545654 13.32193848 51.43925293 12.62475586 51.43286133 C10.55293513 51.4145913 8.48156088 51.41235173 6.40966797 51.41259766 C-3.74907758 51.36713335 -3.74907758 51.36713335 -4.88916016 50.22705078 C-4.99266209 48.73383781 -5.02766754 47.23579421 -5.03442383 45.73901367 C-5.04080368 44.78454849 -5.04718353 43.83008331 -5.05375671 42.84669495 C-5.05486954 41.80818893 -5.05598236 40.76968292 -5.05712891 39.69970703 C-5.06045731 38.64045517 -5.06378571 37.58120331 -5.06721497 36.48985291 C-5.07228884 34.24446041 -5.07462315 31.99906034 -5.07446289 29.75366211 C-5.07664857 26.307817 -5.09479737 22.86229226 -5.11376953 19.41650391 C-5.11670344 17.24007272 -5.11868825 15.06364 -5.11962891 12.88720703 C-5.12681442 11.85072525 -5.13399994 10.81424347 -5.1414032 9.74635315 C-5.13832657 8.78873581 -5.13524994 7.83111847 -5.13208008 6.84448242 C-5.1335051 5.99922501 -5.13493011 5.15396759 -5.13639832 4.28309631 C-4.7140855 0.77112075 -3.37422713 0.2651708 0 0 Z " fill="#4C4C4C" transform="translate(336.88916015625,34.77294921875)"/>
<path d="M0 0 C0.79052765 -0.00570007 1.5810553 -0.01140015 2.39553833 -0.01727295 C4.07178401 -0.02673708 5.74804842 -0.03326252 7.42431641 -0.03710938 C9.99023933 -0.04680857 12.55535927 -0.07781494 15.12109375 -0.109375 C16.74739106 -0.11590543 18.37369412 -0.12115574 20 -0.125 C20.76883514 -0.1373468 21.53767029 -0.1496936 22.32980347 -0.16241455 C27.62042606 -0.14027899 27.62042606 -0.14027899 30.15673828 1.55957031 C31.1328125 3.203125 31.1328125 3.203125 30.8828125 5.828125 C30.1328125 8.203125 30.1328125 8.203125 29.1328125 9.203125 C26.77967695 9.27584241 24.42447582 9.28683368 22.0703125 9.265625 C20.77996094 9.25660156 19.48960937 9.24757813 18.16015625 9.23828125 C17.16113281 9.22667969 16.16210938 9.21507812 15.1328125 9.203125 C15.14328613 10.40437012 15.15375977 11.60561523 15.16455078 12.84326172 C15.20068537 17.28984612 15.22368907 21.73641748 15.24267578 26.18310547 C15.25274832 28.10955994 15.26640693 30.03599908 15.28369141 31.96240234 C15.30788491 34.72757752 15.31928286 37.492551 15.328125 40.2578125 C15.33844757 41.1224411 15.34877014 41.9870697 15.35940552 42.87789917 C15.35980356 44.98766021 15.25546493 47.09693218 15.1328125 49.203125 C13.1328125 51.203125 13.1328125 51.203125 10.0078125 51.328125 C9.0590625 51.286875 8.1103125 51.245625 7.1328125 51.203125 C4.46900784 47.27654789 4.87956471 43.04924891 4.9375 38.5 C4.9403299 37.66221008 4.94315979 36.82442017 4.94607544 35.96124268 C4.95724901 33.29172337 4.98234829 30.6225425 5.0078125 27.953125 C5.01784596 26.14062985 5.02697117 24.32812944 5.03515625 22.515625 C5.0571791 18.07799507 5.09168946 13.64061737 5.1328125 9.203125 C4.21757812 9.23792969 3.30234375 9.27273437 2.359375 9.30859375 C1.17085938 9.33566406 -0.01765625 9.36273438 -1.2421875 9.390625 C-3.01722656 9.44283203 -3.01722656 9.44283203 -4.828125 9.49609375 C-6.33246094 9.35107422 -6.33246094 9.35107422 -7.8671875 9.203125 C-9.8671875 6.203125 -9.8671875 6.203125 -9.5546875 3.578125 C-8.14240957 -1.30065329 -4.38609694 0.02411796 0 0 Z " fill="#0C0C0C" transform="translate(297.8671875,34.796875)"/>
<path d="M0 0 C1.98 0 3.96 0 6 0 C10.01681516 8.2713117 13.71473392 16.5552458 16.85644531 25.20019531 C18.75017061 30.40473669 20.8686015 35.48402098 23.1171875 40.546875 C24 43 24 43 24 47 C21.6875 46.8125 21.6875 46.8125 19 46 C16.28472859 42.48020373 15.44764698 39.34294093 14 35 C7.07 35 0.14 35 -7 35 C-8.65 38.63 -10.3 42.26 -12 46 C-13.65 46 -15.3 46 -17 46 C-17 45.01 -17 44.02 -17 43 C-16.34 43 -15.68 43 -15 43 C-14.91492188 42.07058594 -14.82984375 41.14117187 -14.7421875 40.18359375 C-13.98435752 34.89606773 -11.9998349 30.0385403 -10.125 25.0625 C-9.77308594 24.11181641 -9.42117187 23.16113281 -9.05859375 22.18164062 C-8.0463664 19.45163711 -7.02351568 16.72578656 -6 14 C-5.71374756 13.22446777 -5.42749512 12.44893555 -5.13256836 11.64990234 C-3.64371042 7.62373411 -1.99654903 3.80295053 0 0 Z M3 11 C1.99802294 13.64510016 0.99833079 16.29102402 0 18.9375 C-0.28617188 19.69224609 -0.57234375 20.44699219 -0.8671875 21.22460938 C-2.34549268 24.52711984 -2.34549268 24.52711984 -3 28 C1.29 28 5.58 28 10 28 C8.02 22.39 6.04 16.78 4 11 C3.67 11 3.34 11 3 11 Z " fill="#1E1E1E" transform="translate(102,37)"/>
<path d="M0 0 C1.90175958 2.30927949 3.14155319 4.15248116 4.5 6.75 C4.87382812 7.41725098 5.24765625 8.08450195 5.6328125 8.77197266 C6.78080803 10.83514319 7.89282493 12.91468895 9 15 C9.69678946 16.28446629 10.39465998 17.56834688 11.09375 18.8515625 C12.30857276 21.08843674 13.50317142 23.33242339 14.6875 25.5859375 C15.78875446 27.8832452 15.78875446 27.8832452 17 29 C17.4031543 28.23333008 17.80630859 27.46666016 18.22167969 26.67675781 C19.72918309 23.81847594 21.24323043 20.96378726 22.76171875 18.11132812 C23.41603328 16.87899266 24.06776562 15.6452824 24.71679688 14.41015625 C25.65325319 12.62916571 26.59996567 10.85357999 27.546875 9.078125 C28.39523926 7.47565918 28.39523926 7.47565918 29.26074219 5.84082031 C30.95165634 3.07896222 32.51259867 1.06526712 35 -1 C38.125 -1.375 38.125 -1.375 41 -1 C43.41787996 1.41787996 43.25207276 1.98980188 43.25878906 5.29443359 C43.26509338 6.1823056 43.27139771 7.07017761 43.27789307 7.98495483 C43.2738446 8.94640411 43.26979614 9.90785339 43.265625 10.8984375 C43.26849518 12.37819565 43.26849518 12.37819565 43.27142334 13.8878479 C43.2727861 15.97764338 43.26908334 18.06744729 43.26074219 20.15722656 C43.25006673 23.35501189 43.26062277 26.5522325 43.2734375 29.75 C43.27211548 31.77864707 43.26955219 33.8072938 43.265625 35.8359375 C43.26967346 36.79333832 43.27372192 37.75073914 43.27789307 38.7371521 C43.27158875 39.63132843 43.26528442 40.52550476 43.25878906 41.44677734 C43.25719788 42.23128265 43.25560669 43.01578796 43.25396729 43.82406616 C42.97038162 46.25376352 42.20971342 47.8907128 41 50 C38.69 49.67 36.38 49.34 34 49 C32.96025501 45.58934861 32.88491494 42.47735158 32.90234375 38.921875 C32.90556641 37.76171875 32.90878906 36.6015625 32.91210938 35.40625 C32.92467773 33.59640625 32.92467773 33.59640625 32.9375 31.75 C32.94201172 30.52796875 32.94652344 29.3059375 32.95117188 28.046875 C32.96295185 25.03120054 32.97940147 22.01562502 33 19 C32.65219482 19.65597168 32.30438965 20.31194336 31.94604492 20.98779297 C30.36756885 23.95437086 28.77770233 26.91469256 27.1875 29.875 C26.64029297 30.90753906 26.09308594 31.94007812 25.52929688 33.00390625 C24.99755859 33.99003906 24.46582031 34.97617188 23.91796875 35.9921875 C23.43094482 36.90339355 22.9439209 37.81459961 22.44213867 38.75341797 C21 41 21 41 18 43 C15.36156678 42.81556583 14.32500701 42.35898897 12.54296875 40.390625 C8.350568 33.7697731 4.64148723 26.93455103 1 20 C0.98018066 20.83772949 0.96036133 21.67545898 0.93994141 22.53857422 C0.86189388 25.64365834 0.77520365 28.74834539 0.68261719 31.85302734 C0.62545964 33.85886971 0.57831404 35.86498918 0.53125 37.87109375 C0.47324219 39.75634766 0.47324219 39.75634766 0.4140625 41.6796875 C0.3826416 42.84226074 0.3512207 44.00483398 0.31884766 45.20263672 C0 48 0 48 -2 50 C-5.0625 50.1875 -5.0625 50.1875 -8 50 C-9 49 -9 49 -9.12025452 47.01951599 C-9.11803391 46.15125687 -9.11581329 45.28299774 -9.11352539 44.38842773 C-9.11344986 43.40748642 -9.11337433 42.4265451 -9.11329651 41.4158783 C-9.10813522 40.3492244 -9.10297394 39.2825705 -9.09765625 38.18359375 C-9.0962413 37.0974025 -9.09482635 36.01121124 -9.09336853 34.8921051 C-9.08775048 31.40720925 -9.07519492 27.92237658 -9.0625 24.4375 C-9.05748733 22.08138113 -9.05292402 19.72526126 -9.04882812 17.36914062 C-9.03777519 11.57940536 -9.02101951 5.78970719 -9 0 C-5.70843331 -1.64578334 -3.48396024 -0.9379893 0 0 Z M-8 2 C-8.09804851 3.4067522 -8.12798186 4.81835136 -8.12939453 6.22851562 C-8.13254669 7.12614624 -8.13569885 8.02377686 -8.13894653 8.9486084 C-8.1369223 9.92463013 -8.13489807 10.90065186 -8.1328125 11.90625 C-8.13376923 12.9012854 -8.13472595 13.8963208 -8.13571167 14.92150879 C-8.1363936 17.02986718 -8.13453844 19.13822765 -8.13037109 21.24658203 C-8.12502303 24.48605027 -8.13031567 27.72537985 -8.13671875 30.96484375 C-8.13605797 33.00781281 -8.13477681 35.05078178 -8.1328125 37.09375 C-8.13483673 38.06977173 -8.13686096 39.04579346 -8.13894653 40.0513916 C-8.13579437 40.94902222 -8.13264221 41.84665283 -8.12939453 42.77148438 C-8.12859894 43.56566772 -8.12780334 44.35985107 -8.12698364 45.17810059 C-8.19884546 47.01989803 -8.19884546 47.01989803 -7 48 C-5.35 48 -3.7 48 -2 48 C-1.67 36.78 -1.34 25.56 -1 14 C2.48789288 18.88305003 5.08602722 22.84996523 7.625 28.125 C10.56267086 35.74152729 10.56267086 35.74152729 16.1875 40.8125 C17.0846875 40.9053125 17.0846875 40.9053125 18 41 C22.3090195 34.13903692 26.52656836 27.33280013 30 20 C30.86625 18.329375 30.86625 18.329375 31.75 16.625 C33.14331119 14.18361747 33.14331119 14.18361747 33 12 C33.99 12 34.98 12 36 12 C36 23.88 36 35.76 36 48 C37.32 48 38.64 48 40 48 C40 32.49 40 16.98 40 1 C38.35 1 36.7 1 35 1 C31.95360955 4.04639045 30.51214585 7.03061714 29 11 C28.32610599 12.17457832 27.63753098 13.34080891 26.9375 14.5 C25.28585924 17.30594731 24.39647436 19.72908654 24 23 C23.34 23 22.68 23 22 23 C21.61908203 23.95712891 21.61908203 23.95712891 21.23046875 24.93359375 C20.88628906 25.75988281 20.54210937 26.58617188 20.1875 27.4375 C19.68283203 28.67306641 19.68283203 28.67306641 19.16796875 29.93359375 C18 32 18 32 15 33 C14.896875 32.236875 14.79375 31.47375 14.6875 30.6875 C14.25129793 28.0064426 14.25129793 28.0064426 12.59765625 26.640625 C10.62330718 24.61317608 9.83802019 22.67144983 8.75 20.0625 C4.44833269 9.84757104 4.44833269 9.84757104 -2 1 C-5.28894893 0.59371033 -5.28894893 0.59371033 -8 2 Z " fill="#B2B2B2" transform="translate(141,36)"/>
<path d="M0 0 C8.34503478 6.68349541 14.42146765 17.58294662 20.61474609 26.17163086 C22.01434191 28.10540465 22.01434191 28.10540465 24 30 C23.99214478 28.79670044 23.99214478 28.79670044 23.98413086 27.5690918 C23.96337103 23.94190247 23.95034298 20.31472563 23.9375 16.6875 C23.92912109 15.42486328 23.92074219 14.16222656 23.91210938 12.86132812 C23.90888672 11.65283203 23.90566406 10.44433594 23.90234375 9.19921875 C23.89448853 7.52605591 23.89448853 7.52605591 23.88647461 5.8190918 C24 3 24 3 25 0 C28.375 -0.625 28.375 -0.625 32 -1 C34.41787996 1.41787996 34.25207276 1.98980188 34.25878906 5.29443359 C34.26509338 6.1823056 34.27139771 7.07017761 34.27789307 7.98495483 C34.2738446 8.94640411 34.26979614 9.90785339 34.265625 10.8984375 C34.26849518 12.37819565 34.26849518 12.37819565 34.27142334 13.8878479 C34.2727861 15.97764338 34.26908334 18.06744729 34.26074219 20.15722656 C34.25006673 23.35501189 34.26062277 26.5522325 34.2734375 29.75 C34.27211548 31.77864707 34.26955219 33.8072938 34.265625 35.8359375 C34.26967346 36.79333832 34.27372192 37.75073914 34.27789307 38.7371521 C34.27158875 39.63132843 34.26528442 40.52550476 34.25878906 41.44677734 C34.25719788 42.23128265 34.25560669 43.01578796 34.25396729 43.82406616 C33.97038162 46.25376352 33.20971342 47.8907128 32 50 C27.09031551 49.5791699 25.18501402 47.65111364 22 44 C21.07933037 42.80096861 20.16998864 41.59319012 19.26953125 40.37890625 C15.92436995 35.8911442 12.52877805 31.44339352 9.125 27 C8.53203125 26.22527344 7.9390625 25.45054688 7.328125 24.65234375 C5.88576106 22.76796506 4.44304814 20.88385475 3 19 C2.98541748 19.86802246 2.97083496 20.73604492 2.95581055 21.63037109 C2.89479889 24.84738879 2.82065609 28.06375663 2.73754883 31.28027344 C2.70427127 32.67306089 2.67624803 34.06598411 2.65356445 35.45898438 C2.62007311 37.45991378 2.56618695 39.46046921 2.51171875 41.4609375 C2.48553467 42.66540527 2.45935059 43.86987305 2.43237305 45.11083984 C2.28968994 46.0642627 2.14700684 47.01768555 2 48 C-1 50 -1 50 -3.625 49.6875 C-6 49 -6 49 -7 48 C-7.09311889 46.49581261 -7.11746028 44.98728644 -7.11352539 43.48022461 C-7.11344986 42.51930405 -7.11337433 41.55838348 -7.11329651 40.56834412 C-7.10813522 39.523564 -7.10297394 38.47878387 -7.09765625 37.40234375 C-7.0962413 36.33834854 -7.09482635 35.27435333 -7.09336853 34.17811584 C-7.08775064 30.76454917 -7.07519511 27.351047 -7.0625 23.9375 C-7.05748731 21.62955824 -7.052924 19.32161545 -7.04882812 17.01367188 C-7.0377754 11.34242574 -7.02101987 5.67121747 -7 0 C-4.25410456 -1.37294772 -2.90619397 -0.86791313 0 0 Z M-5 1 C-5 16.18 -5 31.36 -5 47 C-3.35 47 -1.7 47 0 47 C0 35.78 0 24.56 0 13 C3.36345615 16.36345615 5.9250336 19.54642076 8.6328125 23.390625 C9.08398438 23.92171875 9.53515625 24.4528125 10 25 C10.66 25 11.32 25 12 25 C12.28875 25.763125 12.5775 26.52625 12.875 27.3125 C13.96269013 30.15029308 13.96269013 30.15029308 16 33 C16.66 33 17.32 33 18 33 C18.2475 33.7425 18.495 34.485 18.75 35.25 C20.11138952 38.24505695 21.6573421 39.72833173 24 42 C24.474375 42.886875 24.94875 43.77375 25.4375 44.6875 C27.01967198 47.61294215 27.01967198 47.61294215 32 48 C32 32.49 32 16.98 32 1 C30.35 1 28.7 1 27 1 C27 12.55 27 24.1 27 36 C26.01 36 25.02 36 24 36 C23.89816406 35.43031494 23.79632813 34.86062988 23.69140625 34.27368164 C22.86904484 31.56935545 21.6435029 29.87285242 19.9375 27.62109375 C19.30948486 26.78674805 18.68146973 25.95240234 18.03442383 25.09277344 C17.02738403 23.77841309 17.02738403 23.77841309 16 22.4375 C15.32026123 21.54450195 14.64052246 20.65150391 13.94018555 19.73144531 C11.96740948 17.14861211 9.98402568 14.57419409 8 12 C7.24517334 11.00540771 7.24517334 11.00540771 6.47509766 9.99072266 C5.2675387 8.40028997 4.04105083 6.82427368 2.8125 5.25 C2.15894531 4.40953125 1.50539062 3.5690625 0.83203125 2.703125 C-1.07137031 0.54608648 -1.07137031 0.54608648 -5 1 Z " fill="#9C9C9C" transform="translate(251,36)"/>
<path d="M0 0 C8.03871828 3.34788973 11.89358651 7.99111933 15.25 15.9375 C15.61328125 19.59375 15.61328125 19.59375 15.5625 23.4375 C15.55863281 24.7059375 15.55476563 25.974375 15.55078125 27.28125 C15.197568 31.57485521 14.17096246 35.09557509 12.25 38.9375 C11.59 38.9375 10.93 38.9375 10.25 38.9375 C10.04375 39.494375 9.8375 40.05125 9.625 40.625 C6.26303367 46.27921609 1.45592226 48.61692709 -4.625 50.4453125 C-7.05526509 51.00820478 -9.26463278 51.17801941 -11.75 50.9375 C-11.79254356 48.93795254 -11.79080783 46.93708364 -11.75 44.9375 C-9.75812602 42.94562602 -5.8005273 43.62450042 -3.09765625 43.51171875 C-0.59361478 43.19050342 -0.59361478 43.19050342 0.44140625 41.00390625 C0.70824219 40.32199219 0.97507813 39.64007813 1.25 38.9375 C4.67857143 35.9375 4.67857143 35.9375 7.25 35.9375 C8.1827418 31.838139 8.53825262 27.81706712 8.8125 23.625 C8.89628906 22.37074219 8.98007813 21.11648437 9.06640625 19.82421875 C9.15728516 18.39529297 9.15728516 18.39529297 9.25 16.9375 C8.59 16.9375 7.93 16.9375 7.25 16.9375 C6.87875 16.256875 6.5075 15.57625 6.125 14.875 C3.38647098 10.58463786 0.80878004 7.3502067 -3.75 4.9375 C-9.00372555 3.83110382 -14.40357182 3.89208131 -19.75 3.9375 C-20.08 2.6175 -20.41 1.2975 -20.75 -0.0625 C-13.92855247 -3.91406561 -7.13217814 -2.47792246 0 0 Z " fill="#F0990E" transform="translate(224.75,37.0625)"/>
<path d="M0 0 C0.99 0.33 1.98 0.66 3 1 C2.67 1.66 2.34 2.32 2 3 C1.8556203 5.53948271 1.7659986 8.05606381 1.71875 10.59765625 C1.70034058 11.34712021 1.68193115 12.09658417 1.66296387 12.86875916 C1.58415897 16.081711 1.51639931 19.2948742 1.44775391 22.50805664 C1.39614605 24.85053256 1.33885937 27.19282152 1.28125 29.53515625 C1.26767456 30.26742935 1.25409912 30.99970245 1.2401123 31.75416565 C1.11282902 36.88717098 1.11282902 36.88717098 0 38 C-3.4375 38.1875 -3.4375 38.1875 -7 38 C-7.66 37.34 -8.32 36.68 -9 36 C-9.639375 35.9175 -10.27875 35.835 -10.9375 35.75 C-13 35 -13 35 -14.6875 32.5 C-16.25659824 28.31573803 -16.71426223 24.43386191 -17 20 C-16.21753906 19.95101562 -15.43507812 19.90203125 -14.62890625 19.8515625 C-13.61699219 19.77679688 -12.60507813 19.70203125 -11.5625 19.625 C-10.55316406 19.55539063 -9.54382813 19.48578125 -8.50390625 19.4140625 C-7.67761719 19.27742188 -6.85132813 19.14078125 -6 19 C-5.67 18.34 -5.34 17.68 -5 17 C-8.3 17 -11.6 17 -15 17 C-15.125 11.25 -15.125 11.25 -14 9 C-11.9375 8.375 -11.9375 8.375 -10 8 C-9.67 6.35 -9.34 4.7 -9 3 C-6.03 3 -3.06 3 0 3 C0 2.01 0 1.02 0 0 Z " fill="#FAE746" transform="translate(213,43)"/>
<path d="M0 0 C3.54012923 -0.19667385 6.14489381 -0.24329772 9 2 C9.875 4.9375 9.875 4.9375 10 8 C9.01 9.485 9.01 9.485 8 11 C6.68 11 5.36 11 4 11 C3.91254054 14.3956697 3.85945556 17.79104773 3.8125 21.1875 C3.78736328 22.14720703 3.76222656 23.10691406 3.73632812 24.09570312 C3.68242174 29.28868514 3.70108576 32.73181715 7 37 C7.144375 37.721875 7.28875 38.44375 7.4375 39.1875 C7.84293388 41.20876087 7.84293388 41.20876087 10 42.1875 C10.66 42.455625 11.32 42.72375 12 43 C12.495 43.495 12.495 43.495 13 44 C14.34747084 44.23075082 15.70377565 44.41153063 17.0625 44.5625 C18.361875 44.706875 19.66125 44.85125 21 45 C21 46.98 21 48.96 21 51 C12.77670556 50.79061056 7.76489196 48.18567781 1.5625 42.9375 C-0.0671289 40.91676016 -0.63583321 39.5491675 -1 37 C-1.66 37 -2.32 37 -3 37 C-6.10526982 30.01314291 -6.20553097 21.55332982 -3.625 14.375 C-2 11 -2 11 0 9 C0.24253813 6.78927023 0.24253813 6.78927023 0.125 4.375 C0.09792969 3.14910156 0.09792969 3.14910156 0.0703125 1.8984375 C0.04710937 1.27195313 0.02390625 0.64546875 0 0 Z " fill="#F2CC2C" transform="translate(192,37)"/>
<path d="M0 0 C1.65 0 3.3 0 5 0 C5 13.86 5 27.72 5 42 C11.6 42 18.2 42 25 42 C25 43.65 25 45.3 25 47 C16.42 47 7.84 47 -1 47 C-1.02290439 40.4671604 -1.04283288 33.93445903 -1.05493164 27.40161133 C-1.05997317 25.17732268 -1.06680623 22.95303737 -1.07543945 20.72875977 C-1.08751298 17.53921691 -1.09322996 14.34971771 -1.09765625 11.16015625 C-1.10281754 10.15912369 -1.10797882 9.15809113 -1.11329651 8.12672424 C-1.11337204 7.20584518 -1.11344757 6.28496613 -1.11352539 5.33618164 C-1.115746 4.52121719 -1.11796661 3.70625275 -1.12025452 2.86659241 C-1 1 -1 1 0 0 Z " fill="#303030" transform="translate(57,37)"/>
<path d="M0 0 C0.79052765 -0.00570007 1.5810553 -0.01140015 2.39553833 -0.01727295 C4.07178401 -0.02673708 5.74804842 -0.03326252 7.42431641 -0.03710938 C9.99023933 -0.04680857 12.55535927 -0.07781494 15.12109375 -0.109375 C16.74739106 -0.11590543 18.37369412 -0.12115574 20 -0.125 C20.76883514 -0.1373468 21.53767029 -0.1496936 22.32980347 -0.16241455 C27.62042606 -0.14027899 27.62042606 -0.14027899 30.15673828 1.55957031 C31.1328125 3.203125 31.1328125 3.203125 30.8828125 5.828125 C30.1328125 8.203125 30.1328125 8.203125 29.1328125 9.203125 C26.77967695 9.27584241 24.42447582 9.28683368 22.0703125 9.265625 C20.77996094 9.25660156 19.48960937 9.24757813 18.16015625 9.23828125 C17.16113281 9.22667969 16.16210938 9.21507812 15.1328125 9.203125 C15.14328613 10.40437012 15.15375977 11.60561523 15.16455078 12.84326172 C15.20068537 17.28984612 15.22368907 21.73641748 15.24267578 26.18310547 C15.25274832 28.10955994 15.26640693 30.03599908 15.28369141 31.96240234 C15.30788491 34.72757752 15.31928286 37.492551 15.328125 40.2578125 C15.33844757 41.1224411 15.34877014 41.9870697 15.35940552 42.87789917 C15.35980356 44.98766021 15.25546493 47.09693218 15.1328125 49.203125 C13.1328125 51.203125 13.1328125 51.203125 10.0078125 51.328125 C9.0590625 51.286875 8.1103125 51.245625 7.1328125 51.203125 C4.46900784 47.27654789 4.87956471 43.04924891 4.9375 38.5 C4.9403299 37.66221008 4.94315979 36.82442017 4.94607544 35.96124268 C4.95724901 33.29172337 4.98234829 30.6225425 5.0078125 27.953125 C5.01784596 26.14062985 5.02697117 24.32812944 5.03515625 22.515625 C5.0571791 18.07799507 5.09168946 13.64061737 5.1328125 9.203125 C4.21757812 9.23792969 3.30234375 9.27273437 2.359375 9.30859375 C1.17085938 9.33566406 -0.01765625 9.36273438 -1.2421875 9.390625 C-3.01722656 9.44283203 -3.01722656 9.44283203 -4.828125 9.49609375 C-6.33246094 9.35107422 -6.33246094 9.35107422 -7.8671875 9.203125 C-9.8671875 6.203125 -9.8671875 6.203125 -9.5546875 3.578125 C-8.14240957 -1.30065329 -4.38609694 0.02411796 0 0 Z M-6.8671875 2.203125 C-7.1971875 3.523125 -7.5271875 4.843125 -7.8671875 6.203125 C-7.5371875 6.533125 -7.2071875 6.863125 -6.8671875 7.203125 C-1.9171875 7.203125 3.0328125 7.203125 8.1328125 7.203125 C8.1328125 20.733125 8.1328125 34.263125 8.1328125 48.203125 C9.7828125 48.203125 11.4328125 48.203125 13.1328125 48.203125 C13.1328125 34.673125 13.1328125 21.143125 13.1328125 7.203125 C18.0828125 7.203125 23.0328125 7.203125 28.1328125 7.203125 C28.1328125 5.553125 28.1328125 3.903125 28.1328125 2.203125 C16.5828125 2.203125 5.0328125 2.203125 -6.8671875 2.203125 Z " fill="#9B9B9B" transform="translate(297.8671875,34.796875)"/>
<path d="M0 0 C9.57 0 19.14 0 29 0 C29 0.99 29 1.98 29 3 C20.75 3 12.5 3 4 3 C4 8.94 4 14.88 4 21 C9.94 21 15.88 21 22 21 C22 21.99 22 22.98 22 24 C16.06 24 10.12 24 4 24 C4 29.94 4 35.88 4 42 C11.92 42 19.84 42 28 42 C27.67 42.99 27.34 43.98 27 45 C18.09 45 9.18 45 0 45 C0 30.15 0 15.3 0 0 Z " fill="#080808" transform="translate(335,38)"/>
<path d="M0 0 C2.64453125 0.32421875 2.64453125 0.32421875 4.4453125 2.1171875 C4.94417969 2.90738281 5.44304687 3.69757812 5.95703125 4.51171875 C6.46878906 5.28902344 6.98054687 6.06632812 7.5078125 6.8671875 C8.76044862 9.57477554 8.86961386 11.37720685 8.64453125 14.32421875 C7.65453125 14.81921875 7.65453125 14.81921875 6.64453125 15.32421875 C5.65453125 14.66421875 4.66453125 14.00421875 3.64453125 13.32421875 C3.31453125 24.54421875 2.98453125 35.76421875 2.64453125 47.32421875 C0.99453125 47.32421875 -0.65546875 47.32421875 -2.35546875 47.32421875 C-3.91453657 45.76515093 -3.48269246 44.26267594 -3.48486328 42.09570312 C-3.48801544 41.19807251 -3.4911676 40.30044189 -3.49441528 39.37561035 C-3.49239105 38.39958862 -3.49036682 37.42356689 -3.48828125 36.41796875 C-3.48923798 35.42293335 -3.4901947 34.42789795 -3.49118042 33.40270996 C-3.49186235 31.29435157 -3.49000719 29.1859911 -3.48583984 27.07763672 C-3.48049178 23.83816848 -3.48578442 20.5988389 -3.4921875 17.359375 C-3.49152672 15.31640594 -3.49024556 13.27343697 -3.48828125 11.23046875 C-3.49030548 10.25444702 -3.49232971 9.27842529 -3.49441528 8.27282715 C-3.49126312 7.37519653 -3.48811096 6.47756592 -3.48486328 5.55273438 C-3.48406769 4.75855103 -3.48327209 3.96436768 -3.48245239 3.14611816 C-3.28783849 0.3538927 -2.7747634 0.38193261 0 0 Z " fill="#0A0A0A" transform="translate(136.35546875,36.67578125)"/>
<path d="M0 0 C0.05070815 6.33541445 0.08573696 12.67077657 0.10986328 19.00634766 C0.1199211 21.16164099 0.13356899 23.31692068 0.15087891 25.47216797 C0.17513662 28.57002124 0.18648532 31.66769409 0.1953125 34.765625 C0.20563507 35.72929993 0.21595764 36.69297485 0.22659302 37.68585205 C0.22674408 38.58648376 0.22689514 39.48711548 0.22705078 40.41503906 C0.231492 41.20557678 0.23593323 41.9961145 0.24050903 42.81060791 C-0.02803153 45.25517547 -0.78117843 46.88156035 -2 49 C-5.465 48.505 -5.465 48.505 -9 48 C-10.03974499 44.58934861 -10.11508506 41.47735158 -10.09765625 37.921875 C-10.09443359 36.76171875 -10.09121094 35.6015625 -10.08789062 34.40625 C-10.07951172 33.1996875 -10.07113281 31.993125 -10.0625 30.75 C-10.05798828 29.52796875 -10.05347656 28.3059375 -10.04882812 27.046875 C-10.03704815 24.03120054 -10.02059853 21.01562502 -10 18 C-10.52170776 18.98395752 -10.52170776 18.98395752 -11.05395508 19.98779297 C-12.63243115 22.95437086 -14.22229767 25.91469256 -15.8125 28.875 C-16.63331055 30.42380859 -16.63331055 30.42380859 -17.47070312 32.00390625 C-18.00244141 32.99003906 -18.53417969 33.97617188 -19.08203125 34.9921875 C-19.56905518 35.90339355 -20.0560791 36.81459961 -20.55786133 37.75341797 C-22 40 -22 40 -25 42 C-27.0625 41.875 -27.0625 41.875 -29 41 C-30.25 38.9375 -30.25 38.9375 -31 37 C-30.01 37.66 -29.02 38.32 -28 39 C-27.01 39 -26.02 39 -25 39 C-23.32631288 36.6281974 -21.86967147 34.32405681 -20.4375 31.8125 C-19.83905273 30.80219727 -19.83905273 30.80219727 -19.22851562 29.77148438 C-17.17572107 26.25877249 -15.43165839 22.81775571 -14 19 C-13.30866352 17.5542489 -12.60134705 16.11598253 -11.875 14.6875 C-11.52179688 13.99011719 -11.16859375 13.29273438 -10.8046875 12.57421875 C-10.53914063 12.05472656 -10.27359375 11.53523438 -10 11 C-9.01 11 -8.02 11 -7 11 C-7 22.88 -7 34.76 -7 47 C-5.68 47 -4.36 47 -3 47 C-3 31.82 -3 16.64 -3 1 C-1 0 -1 0 0 0 Z " fill="#888888" transform="translate(184,37)"/>
<path d="M0 0 C8.25 0 16.5 0 25 0 C24.67 0.99 24.34 1.98 24 3 C13.605 3.495 13.605 3.495 3 4 C3 7.3 3 10.6 3 14 C8.61 14.33 14.22 14.66 20 15 C21 21 21 21 20 23 C14.06 23 8.12 23 2 23 C2 27.29 2 31.58 2 36 C9.26 36 16.52 36 24 36 C24.33 36.66 24.66 37.32 25 38 C17.08 38 9.16 38 1 38 C1 32.39 1 26.78 1 21 C6.61 21 12.22 21 18 21 C18 20.01 18 19.02 18 18 C12.06 18 6.12 18 0 18 C0 12.06 0 6.12 0 0 Z " fill="#838383" transform="translate(339,41)"/>
<path d="M0 0 C0.69029297 -0.01611328 1.38058594 -0.03222656 2.09179688 -0.04882812 C6.82905571 -0.05331842 10.00485553 0.90585328 14.0625 3.3125 C12.3125 3.9375 12.3125 3.9375 10.0625 4.3125 C9.48757812 3.99667969 8.91265625 3.68085937 8.3203125 3.35546875 C3.6548388 1.20031048 -1.91456957 1.87189207 -6.9375 2.3125 C-8.95276169 3.28137581 -10.95583966 4.2766321 -12.9375 5.3125 C-15.99681377 5.2820085 -18.93232635 4.86678758 -21.9375 4.3125 C-21.83050781 4.92738281 -21.72351563 5.54226562 -21.61328125 6.17578125 C-21.49339844 6.98402344 -21.37351563 7.79226562 -21.25 8.625 C-21.12238281 9.42550781 -20.99476563 10.22601563 -20.86328125 11.05078125 C-20.9375 13.3125 -20.9375 13.3125 -22.34375 14.921875 C-23.13265625 15.61023438 -23.13265625 15.61023438 -23.9375 16.3125 C-27.08175467 24.09039313 -26.73857948 33.20764233 -24.9375 41.3125 C-24.2775 41.3125 -23.6175 41.3125 -22.9375 41.3125 C-22.69 42.26125 -22.4425 43.21 -22.1875 44.1875 C-20.73601562 47.81621096 -20.31860084 47.82840618 -16.9375 49.3125 C-16.21433594 49.73789063 -15.49117187 50.16328125 -14.74609375 50.6015625 C-7.31504696 54.78841258 -1.31632809 55.53170103 6.9921875 53.6484375 C12.81929337 51.8324018 16.39717891 49.70921465 19.94140625 44.703125 C20.31136719 44.24421875 20.68132812 43.7853125 21.0625 43.3125 C21.7225 43.3125 22.3825 43.3125 23.0625 43.3125 C23.3925 42.3225 23.7225 41.3325 24.0625 40.3125 C24.3925 40.9725 24.7225 41.6325 25.0625 42.3125 C19.93410025 49.88142439 14.32899341 55.52980317 5.0625 57.3125 C-4.33251349 58.22798854 -12.22071123 56.46304464 -19.75 50.625 C-25.14773202 45.61008585 -28.52145094 38.96406489 -29.17578125 31.6484375 C-29.3370334 25.2153256 -28.66581417 20.40366012 -25.91015625 14.56640625 C-24.27113958 10.76836361 -23.61435651 8.28193048 -24.9375 4.3125 C-22.9375 2.3125 -22.9375 2.3125 -20.73046875 2.1875 C-19.0012841 2.27045938 -17.27211719 2.35378933 -15.54296875 2.4375 C-12.91762004 2.46105963 -12.91762004 2.46105963 -10.609375 1.33203125 C-7.07317687 -0.01730751 -3.73014591 -0.0173173 0 0 Z " fill="#FAE99B" transform="translate(213.9375,32.6875)"/>
<path d="M0 0 C3.0625 0.25 3.0625 0.25 6.0625 2.25 C7.13598185 4.70786282 8.06467715 7.09759596 8.9375 9.625 C9.46439718 11.09047364 9.99305802 12.55531431 10.5234375 14.01953125 C10.78350586 14.74221191 11.04357422 15.46489258 11.31152344 16.20947266 C12.3180179 18.94428434 13.42749151 21.62875413 14.5625 24.3125 C14.95824219 25.25351562 15.35398437 26.19453125 15.76171875 27.1640625 C16.46096064 28.82292465 17.16049367 30.48166494 17.86181641 32.13964844 C18.70852338 34.15198379 19.54264693 36.16919104 20.375 38.1875 C20.64183594 38.81470947 20.90867188 39.44191895 21.18359375 40.08813477 C22.61841816 43.59543087 23.47506654 46.45298929 23.0625 50.25 C22.0625 51.25 22.0625 51.25 18.8125 51.4375 C15.0625 50.25 15.0625 50.25 13.48828125 48.0234375 C10.0625 41.21113897 10.0625 41.21113897 10.0625 38.25 C4.1225 38.25 -1.8175 38.25 -7.9375 38.25 C-8.9275 40.23 -9.9175 42.21 -10.9375 44.25 C-11.85841738 41.67143135 -12.12256902 40.6556713 -10.9609375 38.109375 C-10.62320313 37.49578125 -10.28546875 36.8821875 -9.9375 36.25 C-6.47923658 36.19210994 -3.02109707 36.15644179 0.4375 36.125 C1.42234375 36.10824219 2.4071875 36.09148437 3.421875 36.07421875 C4.83339844 36.06455078 4.83339844 36.06455078 6.2734375 36.0546875 C7.57740479 36.03897705 7.57740479 36.03897705 8.90771484 36.02294922 C11.0625 36.25 11.0625 36.25 13.0625 38.25 C13.79932844 40.53289044 14.39589217 42.83197181 14.98828125 45.15625 C15.9314442 47.50747494 15.9314442 47.50747494 18.66796875 48.53125 C19.45816406 48.7684375 20.24835938 49.005625 21.0625 49.25 C18.11190284 40.05920375 14.89100337 31.11976247 11.0625 22.25 C10.18491445 20.14691038 9.30989762 18.04274696 8.4375 15.9375 C8.02113281 14.95523438 7.60476562 13.97296875 7.17578125 12.9609375 C6.50110115 11.31803228 5.86240142 9.65884583 5.29296875 7.9765625 C4.61240436 5.85157185 4.61240436 5.85157185 3.0625 3.25 C-0.02119887 2.19250443 -0.02119887 2.19250443 -2.9375 2.25 C-3.14052734 3.03697266 -3.14052734 3.03697266 -3.34765625 3.83984375 C-5.01145133 9.82751348 -7.16398255 15.56142166 -9.5 21.3125 C-9.80494385 22.0748999 -10.1098877 22.8372998 -10.42407227 23.62280273 C-12.69651224 29.12950612 -12.69651224 29.12950612 -14.9375 30.25 C-13.91782653 24.38206777 -11.67373489 19.08358251 -9.5 13.5625 C-9.09201172 12.50482422 -8.68402344 11.44714844 -8.26367188 10.35742188 C-7.67102539 8.84438477 -7.67102539 8.84438477 -7.06640625 7.30078125 C-6.70619385 6.37950439 -6.34598145 5.45822754 -5.97485352 4.5090332 C-4.44744205 1.18280625 -3.71139635 0.31586352 0 0 Z " fill="#B9B9B9" transform="translate(104.9375,34.75)"/>
<path d="M0 0 C0.33 1.32 0.66 2.64 1 4 C2.65 4 4.3 4 6 4 C6.10957031 4.58007812 6.21914062 5.16015625 6.33203125 5.7578125 C7.48661887 11.44626856 9.28139417 16.01505303 12.1875 21.0625 C13 23 13 23 13 28 C7.06 28 1.12 28 -5 28 C-5.33 26.68 -5.66 25.36 -6 24 C-5.34 24 -4.68 24 -4 24 C-4.33 23.01 -4.66 22.02 -5 21 C-6.32 22.98 -7.64 24.96 -9 27 C-10 25 -10 25 -9.109375 22.2421875 C-8.66078125 21.13101563 -8.2121875 20.01984375 -7.75 18.875 C-7.28464844 17.70839844 -6.81929688 16.54179688 -6.33984375 15.33984375 C-5.89769531 14.23769531 -5.45554687 13.13554688 -5 12 C-4.43194745 10.48123189 -3.86826275 8.96080826 -3.3125 7.4375 C-2.32484166 4.85077578 -1.31579702 2.42916373 0 0 Z M4 9 C2.99802294 11.64510016 1.99833079 14.29102402 1 16.9375 C0.71382812 17.69224609 0.42765625 18.44699219 0.1328125 19.22460938 C-1.34549268 22.52711984 -1.34549268 22.52711984 -2 26 C2.29 26 6.58 26 11 26 C9.02 20.39 7.04 14.78 5 9 C4.67 9 4.34 9 4 9 Z " fill="#373737" transform="translate(101,39)"/>
<path d="M0 0 C1.65 0 3.3 0 5 0 C5 15.51 5 31.02 5 47 C3.68 47 2.36 47 1 47 C1 35.12 1 23.24 1 11 C-0.32 11.33 -1.64 11.66 -3 12 C-3 3 -3 3 0 0 Z " fill="#111111" transform="translate(176,37)"/>
<path d="M0 0 C8.28131621 6.63246354 14.33509948 17.4316444 20.5012207 25.94458008 C21.98307592 27.97679038 23.48638926 29.99136481 25 32 C24.01 32 23.02 32 22 32 C20.40942383 30.32275391 20.40942383 30.32275391 18.70703125 27.9765625 C18.08030518 27.12425049 17.4535791 26.27193848 16.80786133 25.39379883 C16.14939209 24.48009521 15.49092285 23.5663916 14.8125 22.625 C13.45916885 20.78714488 12.10501041 18.94989864 10.75 17.11328125 C10.10160156 16.22850098 9.45320313 15.3437207 8.78515625 14.43212891 C6.65765875 11.53358813 4.51160507 8.65717568 2.3125 5.8125 C1.75175781 5.07644531 1.19101563 4.34039062 0.61328125 3.58203125 C-1.12529621 1.61019885 -1.12529621 1.61019885 -5 1 C-5 16.18 -5 31.36 -5 47 C-3.68 47.33 -2.36 47.66 -1 48 C-2.98 48 -4.96 48 -7 48 C-7 32.16 -7 16.32 -7 0 C-4.25410456 -1.37294772 -2.90619397 -0.86791313 0 0 Z " fill="#929391" transform="translate(251,36)"/>
<path d="M0 0 C0.66 0 1.32 0 2 0 C2.33 13.53 2.66 27.06 3 41 C9.27 41.33 15.54 41.66 22 42 C22 42.66 22 43.32 22 44 C14.41 44 6.82 44 -1 44 C-1.02290553 37.89440345 -1.04283367 31.78895484 -1.05493164 25.68334961 C-1.05997288 23.60456844 -1.06680574 21.52579084 -1.07543945 19.44702148 C-1.08751422 16.46597414 -1.09323024 13.48497351 -1.09765625 10.50390625 C-1.10539818 9.10078941 -1.10539818 9.10078941 -1.11329651 7.66932678 C-1.11337204 6.80850998 -1.11344757 5.94769318 -1.11352539 5.06079102 C-1.115746 4.29912125 -1.11796661 3.53745148 -1.12025452 2.75270081 C-1 1 -1 1 0 0 Z " fill="#020202" transform="translate(59,38)"/>
<path d="M0 0 C1.20446777 0.01047363 2.40893555 0.02094727 3.64990234 0.03173828 C5.60283203 0.04140625 5.60283203 0.04140625 7.59521484 0.05126953 C8.9754258 0.06798149 10.35563413 0.08491139 11.73583984 0.10205078 C13.12385436 0.11208072 14.51187574 0.12120655 15.89990234 0.12939453 C19.3037201 0.15303215 22.70719491 0.18598211 26.11083984 0.22705078 C26.44083984 1.21705078 26.77083984 2.20705078 27.11083984 3.22705078 C17.21083984 3.22705078 7.31083984 3.22705078 -2.88916016 3.22705078 C-2.88916016 18.07705078 -2.88916016 32.92705078 -2.88916016 48.22705078 C6.68083984 48.55705078 16.25083984 48.88705078 26.11083984 49.22705078 C25.78083984 49.88705078 25.45083984 50.54705078 25.11083984 51.22705078 C20.99911425 51.25170824 16.88741707 51.26989037 12.77563477 51.28198242 C11.37588756 51.28702158 9.97614564 51.29385295 8.57641602 51.30249023 C6.56838208 51.31457398 4.56031027 51.31974885 2.55224609 51.32470703 C1.3425415 51.32994385 0.13283691 51.33518066 -1.11352539 51.34057617 C-3.88916016 51.22705078 -3.88916016 51.22705078 -4.88916016 50.22705078 C-4.99266209 48.73383781 -5.02766754 47.23579421 -5.03442383 45.73901367 C-5.04080368 44.78454849 -5.04718353 43.83008331 -5.05375671 42.84669495 C-5.05486954 41.80818893 -5.05598236 40.76968292 -5.05712891 39.69970703 C-5.06045731 38.64045517 -5.06378571 37.58120331 -5.06721497 36.48985291 C-5.07228884 34.24446041 -5.07462315 31.99906034 -5.07446289 29.75366211 C-5.07664857 26.307817 -5.09479737 22.86229226 -5.11376953 19.41650391 C-5.11670344 17.24007272 -5.11868825 15.06364 -5.11962891 12.88720703 C-5.12681442 11.85072525 -5.13399994 10.81424347 -5.1414032 9.74635315 C-5.13832657 8.78873581 -5.13524994 7.83111847 -5.13208008 6.84448242 C-5.1335051 5.99922501 -5.13493011 5.15396759 -5.13639832 4.28309631 C-4.7140855 0.77112075 -3.37422713 0.2651708 0 0 Z " fill="#B7B6B6" transform="translate(336.88916015625,34.77294921875)"/>
<path d="M0 0 C0.60070312 0.33644531 1.20140625 0.67289063 1.8203125 1.01953125 C2.9134375 1.24640625 4.0065625 1.47328125 5.1328125 1.70703125 C11.35298959 3.92099259 15.19373342 8.29912143 18.2578125 14.08203125 C20.92648849 20.7365409 21.16403335 29.18325952 18.796875 35.94140625 C18.47460938 36.6271875 18.15234375 37.31296875 17.8203125 38.01953125 C17.4903125 38.01953125 17.1603125 38.01953125 16.8203125 38.01953125 C16.84125977 37.45556641 16.86220703 36.89160156 16.88378906 36.31054688 C16.96779751 33.71372876 17.01923479 31.11719763 17.0703125 28.51953125 C17.10382813 27.63265625 17.13734375 26.74578125 17.171875 25.83203125 C17.28496952 18.14160397 15.52447867 12.92156323 10.2578125 7.26953125 C3.12536353 1.96960065 -5.44948109 0.07025747 -14.1796875 1.01953125 C-15.51985691 1.32421934 -16.85628268 1.64873673 -18.1796875 2.01953125 C-17.8496875 3.00953125 -17.5196875 3.99953125 -17.1796875 5.01953125 C-16.05949219 5.05691406 -14.93929687 5.09429687 -13.78515625 5.1328125 C-12.3124666 5.19847382 -10.83981184 5.26492111 -9.3671875 5.33203125 C-8.26020508 5.36586914 -8.26020508 5.36586914 -7.13085938 5.40039062 C-1.62993988 5.67419205 -1.62993988 5.67419205 0.83203125 7.5625 C1.15816406 8.04332031 1.48429687 8.52414063 1.8203125 9.01953125 C-5.34531539 9.30053627 -12.12515749 8.2239632 -19.1796875 7.01953125 C-19.5096875 7.67953125 -19.8396875 8.33953125 -20.1796875 9.01953125 C-20.5096875 7.36953125 -20.8396875 5.71953125 -21.1796875 4.01953125 C-22.1696875 3.68953125 -23.1596875 3.35953125 -24.1796875 3.01953125 C-17.12846192 -1.06179829 -7.80160979 -3.50932627 0 0 Z " fill="#F7C73B" transform="translate(222.1796875,34.98046875)"/>
<path d="M0 0 C0.79052765 -0.00570007 1.5810553 -0.01140015 2.39553833 -0.01727295 C4.07178401 -0.02673708 5.74804842 -0.03326252 7.42431641 -0.03710938 C9.99023933 -0.04680857 12.55535927 -0.07781494 15.12109375 -0.109375 C16.74739106 -0.11590543 18.37369412 -0.12115574 20 -0.125 C20.76883514 -0.1373468 21.53767029 -0.1496936 22.32980347 -0.16241455 C27.62042606 -0.14027899 27.62042606 -0.14027899 30.15673828 1.55957031 C31.1328125 3.203125 31.1328125 3.203125 30.8828125 5.828125 C30.1328125 8.203125 30.1328125 8.203125 29.1328125 9.203125 C24.5128125 9.203125 19.8928125 9.203125 15.1328125 9.203125 C15.1328125 22.403125 15.1328125 35.603125 15.1328125 49.203125 C14.8028125 49.203125 14.4728125 49.203125 14.1328125 49.203125 C14.1328125 35.673125 14.1328125 22.143125 14.1328125 8.203125 C18.7528125 8.203125 23.3728125 8.203125 28.1328125 8.203125 C28.1328125 6.223125 28.1328125 4.243125 28.1328125 2.203125 C10.8078125 2.698125 10.8078125 2.698125 -6.8671875 3.203125 C-7.1971875 4.853125 -7.5271875 6.503125 -7.8671875 8.203125 C-8.5271875 7.543125 -9.1871875 6.883125 -9.8671875 6.203125 C-9.01085354 -0.8188135 -6.33366239 0.0348271 0 0 Z " fill="#C3C3C3" transform="translate(297.8671875,34.796875)"/>
<path d="M0 0 C5.37240632 2.68620316 7.53106376 6.65063815 10 12 C10.66 12 11.32 12 12 12 C16 17.41176471 16 17.41176471 16 20 C16.66 20 17.32 20 18 20 C19.5078125 21.64453125 19.5078125 21.64453125 21.125 23.8125 C21.66382813 24.52019531 22.20265625 25.22789063 22.7578125 25.95703125 C24 28 24 28 24 31 C16.09723176 23.33670959 9.51921754 14.83738783 3 6 C2.98541748 6.86802246 2.97083496 7.73604492 2.95581055 8.63037109 C2.89479889 11.84738879 2.82065609 15.06375663 2.73754883 18.28027344 C2.70427127 19.67306089 2.67624803 21.06598411 2.65356445 22.45898438 C2.62007311 24.45991378 2.56618695 26.46046921 2.51171875 28.4609375 C2.48553467 29.66540527 2.45935059 30.86987305 2.43237305 32.11083984 C2.28968994 33.0642627 2.14700684 34.01768555 2 35 C-1 37 -1 37 -3.6875 36.625 C-4.450625 36.41875 -5.21375 36.2125 -6 36 C-6 35.67 -6 35.34 -6 35 C-3.525 34.505 -3.525 34.505 -1 34 C-0.67 22.78 -0.34 11.56 0 0 Z " fill="#A0A0A0" transform="translate(251,49)"/>
<path d="M0 0 C1.2065625 0.0309375 1.2065625 0.0309375 2.4375 0.0625 C3.0975 1.3825 3.7575 2.7025 4.4375 4.0625 C2.4575 3.4025 0.4775 2.7425 -1.5625 2.0625 C-1.5625 16.2525 -1.5625 30.4425 -1.5625 45.0625 C-0.5725 45.0625 0.4175 45.0625 1.4375 45.0625 C1.4375 33.5125 1.4375 21.9625 1.4375 10.0625 C2.4275 10.0625 3.4175 10.0625 4.4375 10.0625 C4.1075 11.0525 3.7775 12.0425 3.4375 13.0625 C3.28427641 15.64580229 3.18043111 18.20742239 3.12109375 20.79296875 C3.10031265 21.54338943 3.07953156 22.29381012 3.05812073 23.06697083 C2.99280074 25.46122184 2.93382208 27.85558139 2.875 30.25 C2.83179807 31.87436013 2.78818324 33.49870933 2.74414062 35.12304688 C2.63713737 39.10275371 2.53582063 43.08256958 2.4375 47.0625 C0.77138095 47.105221 -0.89632885 47.10313832 -2.5625 47.0625 C-4.12156782 45.50343218 -3.68972371 44.00095719 -3.69189453 41.83398438 C-3.69504669 40.93635376 -3.69819885 40.03872314 -3.70144653 39.1138916 C-3.6994223 38.13786987 -3.69739807 37.16184814 -3.6953125 36.15625 C-3.69626923 35.1612146 -3.69722595 34.1661792 -3.69821167 33.14099121 C-3.6988936 31.03263282 -3.69703844 28.92427235 -3.69287109 26.81591797 C-3.68752303 23.57644973 -3.69281567 20.33712015 -3.69921875 17.09765625 C-3.69855797 15.05468719 -3.69727681 13.01171822 -3.6953125 10.96875 C-3.69733673 9.99272827 -3.69936096 9.01670654 -3.70144653 8.0111084 C-3.69829437 7.11347778 -3.69514221 6.21584717 -3.69189453 5.29101562 C-3.69109894 4.49683228 -3.69030334 3.70264893 -3.68948364 2.88439941 C-3.48548513 -0.04247176 -2.94401705 0.07180529 0 0 Z " fill="#484848" transform="translate(136.5625,36.9375)"/>
<path d="M0 0 C2.16945505 3.25418258 3.22860706 6.24348331 4.5 9.9375 C6.09139467 14.66600993 6.09139467 14.66600993 8.15625 19.19140625 C9 21 9 21 9 25 C6.6875 24.8125 6.6875 24.8125 4 24 C1.40050241 20.6302809 0.30380173 17.01127086 -1 13 C-4.458176 12.9131671 -7.91607344 12.85966718 -11.375 12.8125 C-12.35984375 12.78736328 -13.3446875 12.76222656 -14.359375 12.73632812 C-15.30039063 12.72666016 -16.24140625 12.71699219 -17.2109375 12.70703125 C-18.08024902 12.6913208 -18.94956055 12.67561035 -19.84521484 12.65942383 C-20.9118335 12.82800903 -20.9118335 12.82800903 -22 13 C-22.99 14.485 -22.99 14.485 -24 16 C-24.66 14.68 -25.32 13.36 -26 12 C-23.05868109 11.01956036 -21.17498335 10.88378798 -18.11328125 10.90234375 C-17.17548828 10.90556641 -16.23769531 10.90878906 -15.27148438 10.91210938 C-13.80678711 10.92467773 -13.80678711 10.92467773 -12.3125 10.9375 C-10.83040039 10.94426758 -10.83040039 10.94426758 -9.31835938 10.95117188 C-6.87884526 10.96295697 -4.43945311 10.97940989 -2 11 C-1.7834375 9.824375 -1.7834375 9.824375 -1.5625 8.625 C-1 6 -1 6 0 4 C0 2.68 0 1.36 0 0 Z " fill="#2A2A2A" transform="translate(117,59)"/>
<path d="M0 0 C3.0625 0.1875 3.0625 0.1875 5.0625 2.1875 C5.16720753 5.27693916 5.15104402 8.26823522 5.0390625 11.3515625 C5.01403656 12.25877045 4.98901062 13.16597839 4.96322632 14.10067749 C4.88089936 17.00499134 4.78435934 19.90863795 4.6875 22.8125 C4.62927339 24.77861837 4.57196985 26.74476431 4.515625 28.7109375 C4.37703916 33.53698572 4.21925881 38.36187055 4.0625 43.1875 C10.3325 43.1875 16.6025 43.1875 23.0625 43.1875 C23.0625 43.5175 23.0625 43.8475 23.0625 44.1875 C16.4625 44.1875 9.8625 44.1875 3.0625 44.1875 C3.0625 30.3275 3.0625 16.4675 3.0625 2.1875 C1.4125 2.5175 -0.2375 2.8475 -1.9375 3.1875 C-2.2675 18.0375 -2.5975 32.8875 -2.9375 48.1875 C-3.2675 48.1875 -3.5975 48.1875 -3.9375 48.1875 C-3.96276945 41.5122966 -3.98033268 34.83710543 -3.99243164 28.16186523 C-3.99747325 25.88907409 -4.00430637 23.6162862 -4.01293945 21.34350586 C-4.02501261 18.08446449 -4.03072987 14.82546583 -4.03515625 11.56640625 C-4.04031754 10.54349991 -4.04547882 9.52059357 -4.05079651 8.46669006 C-4.05087204 7.52579025 -4.05094757 6.58489044 -4.05102539 5.61547852 C-4.053246 4.78274918 -4.05546661 3.95001984 -4.05775452 3.09205627 C-3.85790507 -0.07310145 -3.2173046 0.20535987 0 0 Z " fill="#8D8D8D" transform="translate(58.9375,34.8125)"/>
<path d="M0 0 C0.33 0 0.66 0 1 0 C1.19476139 2.60380996 1.38108614 5.20775533 1.5625 7.8125 C1.61857422 8.55048828 1.67464844 9.28847656 1.73242188 10.04882812 C1.95769724 13.36788516 2.06255812 15.81232564 1 19 C1.66 19.33 2.32 19.66 3 20 C2.34 20 1.68 20 1 20 C1.33 23.96 1.66 27.92 2 32 C3.98 32 5.96 32 8 32 C8 31.34 8 30.68 8 30 C8.66 30 9.32 30 10 30 C9.79375 29.38125 9.5875 28.7625 9.375 28.125 C9.25125 27.42375 9.1275 26.7225 9 26 C9.66 25.34 10.32 24.68 11 24 C11.99 24.66 12.98 25.32 14 26 C14.66 24.68 15.32 23.36 16 22 C16.33 22 16.66 22 17 22 C17.375 24.1875 17.375 24.1875 17 27 C14.0625 29.6875 14.0625 29.6875 11 32 C10.67 32.66 10.34 33.32 10 34 C4.18135123 35.87027996 -2.92723782 37.10180917 -9 36 C-11.0625 34 -11.0625 34 -12 32 C-11.484375 32.33 -10.96875 32.66 -10.4375 33 C-7.35974576 34.44281575 -7.35974576 34.44281575 -1 34 C-0.67 22.78 -0.34 11.56 0 0 Z " fill="#FAD326" transform="translate(214,46)"/>
<path d="M0 0 C0.33 1.32 0.66 2.64 1 4 C0.34 4 -0.32 4 -1 4 C-0.56483494 6.08611659 -0.56483494 6.08611659 1 8 C3.66482841 8.46709352 5.95070966 8.69572473 8.625 8.75 C9.33140625 8.77964844 10.0378125 8.80929688 10.765625 8.83984375 C12.50980047 8.91055357 14.25490827 8.95754035 16 9 C16 9.33 16 9.66 16 10 C14.89140625 10.04898438 13.7828125 10.09796875 12.640625 10.1484375 C11.17705935 10.22349215 9.71351888 10.29903881 8.25 10.375 C7.52039063 10.4059375 6.79078125 10.436875 6.0390625 10.46875 C2.26057344 10.6748494 -0.77946668 10.91512843 -4 13 C-3.773125 13.70125 -3.54625 14.4025 -3.3125 15.125 C-2.90467361 18.87700275 -4.13622707 20.79431057 -6 24 C-7.65 24 -9.3 24 -11 24 C-11 23.01 -11 22.02 -11 21 C-10.34 21 -9.68 21 -9 21 C-8.95875 20.0925 -8.9175 19.185 -8.875 18.25 C-8.00146794 11.9005953 -4.52230695 4.52230695 0 0 Z " fill="#050505" transform="translate(96,59)"/>
<path d="M0 0 C0.495 1.98 0.495 1.98 1 4 C-1.31 3.67 -3.62 3.34 -6 3 C-8.35131581 5.88570576 -9.63857931 8.55640648 -11 12 C-11.65118613 13.17537746 -12.31904164 14.34161696 -13 15.5 C-14.61497069 18.25388659 -15.90606289 20.99167296 -17 24 C-17.66 24 -18.32 24 -19 24 C-19.17015625 24.63808594 -19.3403125 25.27617188 -19.515625 25.93359375 C-19.75796875 26.75988281 -20.0003125 27.58617188 -20.25 28.4375 C-20.59804687 29.67306641 -20.59804687 29.67306641 -20.953125 30.93359375 C-22 33 -22 33 -24.109375 33.78515625 C-25.04523438 33.89150391 -25.04523438 33.89150391 -26 34 C-26.433125 33.113125 -26.86625 32.22625 -27.3125 31.3125 C-28.90449579 28.0832945 -28.90449579 28.0832945 -30.5625 25.4375 C-31.98857851 23.01936687 -33.02400096 20.62768974 -34 18 C-30.0884532 19.47958509 -28.7725476 21.53957471 -26.75 25.125 C-26.22921875 26.03507812 -25.7084375 26.94515625 -25.171875 27.8828125 C-24.78515625 28.58148438 -24.3984375 29.28015625 -24 30 C-23.5968457 29.23333008 -23.19369141 28.46666016 -22.77832031 27.67675781 C-21.27081691 24.81847594 -19.75676957 21.96378726 -18.23828125 19.11132812 C-17.58396672 17.87899266 -16.93223438 16.6452824 -16.28320312 15.41015625 C-15.34674681 13.62916571 -14.40003433 11.85357999 -13.453125 10.078125 C-12.88754883 9.00981445 -12.32197266 7.94150391 -11.73925781 6.84082031 C-8.44330691 1.45737216 -6.45604443 -0.58691313 0 0 Z " fill="#A3A3A3" transform="translate(182,35)"/>
<path d="M0 0 C0.02529825 6.37206172 0.04284496 12.74411054 0.05493164 19.11621094 C0.05996891 21.28516117 0.06679891 23.454108 0.07543945 25.62304688 C0.08753151 28.73568563 0.09323428 31.8482796 0.09765625 34.9609375 C0.10281754 35.934935 0.10797882 36.9089325 0.11329651 37.91244507 C0.11337204 38.81322784 0.11344757 39.71401062 0.11352539 40.64208984 C0.115746 41.43706879 0.11796661 42.23204773 0.12025452 43.05111694 C0 45 0 45 -1 47 C-1.66 47 -2.32 47 -3 47 C-3 31.82 -3 16.64 -3 1 C-1 0 -1 0 0 0 Z " fill="#848484" transform="translate(184,37)"/>
<path d="M0 0 C0.99 0 1.98 0 3 0 C3.25394531 0.88042969 3.50789063 1.76085938 3.76953125 2.66796875 C4.11371094 3.82941406 4.45789063 4.99085937 4.8125 6.1875 C5.14894531 7.33605469 5.48539063 8.48460937 5.83203125 9.66796875 C6.85764546 12.9862616 6.85764546 12.9862616 8.63671875 15.61328125 C10 18 10 18 10 23 C4.39 23 -1.22 23 -7 23 C-6.67 20.69 -6.34 18.38 -6 16 C-5.34 16 -4.68 16 -4 16 C-3.896875 15.030625 -3.79375 14.06125 -3.6875 13.0625 C-3.05370121 8.51406161 -1.55244173 4.30582896 0 0 Z M1 4 C-0.00197706 6.64510016 -1.00166921 9.29102402 -2 11.9375 C-2.28617187 12.69224609 -2.57234375 13.44699219 -2.8671875 14.22460938 C-4.34549268 17.52711984 -4.34549268 17.52711984 -5 21 C-0.71 21 3.58 21 8 21 C6.02 15.39 4.04 9.78 2 4 C1.67 4 1.34 4 1 4 Z " fill="#939393" transform="translate(104,44)"/>
<path d="M0 0 C1.47583955 0.0001591 2.95168467 0.00585225 4.42749023 0.01586914 C5.20293686 0.01728409 5.97838348 0.01869904 6.77732849 0.02015686 C9.26361893 0.02577194 11.74982059 0.03832693 14.23608398 0.05102539 C15.91772331 0.05603845 17.59936405 0.06060169 19.28100586 0.06469727 C23.41189965 0.07574626 27.54272674 0.09302094 31.67358398 0.11352539 C31.67358398 1.76352539 31.67358398 3.41352539 31.67358398 5.11352539 C26.72358398 5.11352539 21.77358398 5.11352539 16.67358398 5.11352539 C16.67358398 4.78352539 16.67358398 4.45352539 16.67358398 4.11352539 C21.29358398 4.11352539 25.91358398 4.11352539 30.67358398 4.11352539 C30.67358398 3.12352539 30.67358398 2.13352539 30.67358398 1.11352539 C24.40358398 1.44352539 18.13358398 1.77352539 11.67358398 2.11352539 C11.34358398 3.10352539 11.01358398 4.09352539 10.67358398 5.11352539 C6.05358398 5.11352539 1.43358398 5.11352539 -3.32641602 5.11352539 C-3.65641602 3.79352539 -3.98641602 2.47352539 -4.32641602 1.11352539 C-3.32641602 0.11352539 -3.32641602 0.11352539 0 0 Z " fill="#2F2F2F" transform="translate(294.326416015625,36.886474609375)"/>
<path d="M0 0 C-0.33 0.99 -0.66 1.98 -1 3 C-11.395 3.495 -11.395 3.495 -22 4 C-22 7.3 -22 10.6 -22 14 C-16.39 14.33 -10.78 14.66 -5 15 C-4.67 16.98 -4.34 18.96 -4 21 C-4.66 21.66 -5.32 22.32 -6 23 C-6 21.02 -6 19.04 -6 17 C-11.94 17 -17.88 17 -24 17 C-24 11.72 -24 6.44 -24 1 C-20.37502451 0.83278531 -16.7500219 0.66620299 -13.125 0.5 C-12.09246094 0.45230469 -11.05992187 0.40460937 -9.99609375 0.35546875 C-9.00996094 0.31035156 -8.02382813 0.26523437 -7.0078125 0.21875 C-6.09660645 0.17685547 -5.18540039 0.13496094 -4.24658203 0.09179688 C-2.83190448 0.03399218 -1.41585803 0 0 0 Z " fill="#B7B7B7" transform="translate(364,41)"/>
<path d="M0 0 C0.66 0.99 1.32 1.98 2 3 C-0.31 2.67 -2.62 2.34 -5 2 C-5 13.55 -5 25.1 -5 37 C-5.99 37 -6.98 37 -8 37 C-8.02472039 32.35522856 -8.04286968 27.71049543 -8.05493164 23.06567383 C-8.05996014 21.48558892 -8.06678378 19.90550866 -8.07543945 18.32543945 C-8.08756992 16.05418754 -8.09324313 13.78299715 -8.09765625 11.51171875 C-8.10281754 10.80536789 -8.10797882 10.09901703 -8.11329651 9.3712616 C-8.11364803 6.29745609 -7.9803186 3.9409558 -7 1 C-4.46578263 -0.26710868 -2.80561762 -0.28056176 0 0 Z " fill="#A3A3A3" transform="translate(283,35)"/>
<path d="M0 0 C0.66 0 1.32 0 2 0 C2 7.26 2 14.52 2 22 C0.68 22 -0.64 22 -2 22 C-4.54806853 17.22237151 -4.70472223 12.27722228 -4 7 C-2.91750695 4.34553879 -1.65118471 2.37357803 0 0 Z " fill="#F2C215" transform="translate(192,49)"/>
<path d="M0 0 C0.33 0 0.66 0 1 0 C1.05428973 2.22889496 1.09292338 4.45817471 1.125 6.6875 C1.14820313 7.92886719 1.17140625 9.17023437 1.1953125 10.44921875 C1.01032021 13.81237857 0.45767895 15.9985587 -1 19 C-1.66 17.68 -2.32 16.36 -3 15 C-3.99 16.485 -3.99 16.485 -5 18 C-8.41158256 16.86280581 -9.11854601 15.95657056 -11 13 C-11 12.34 -11 11.68 -11 11 C-11.66 10.67 -12.32 10.34 -13 10 C-12 9 -12 9 -9.71484375 8.90234375 C-8.34005859 8.91974609 -8.34005859 8.91974609 -6.9375 8.9375 C-6.01839844 8.94652344 -5.09929687 8.95554687 -4.15234375 8.96484375 C-3.44207031 8.97644531 -2.73179687 8.98804688 -2 9 C-2 9.99 -2 10.98 -2 12 C-1.34 12 -0.68 12 0 12 C0 8.04 0 4.08 0 0 Z " fill="#F4C40B" transform="translate(233,54)"/>
<path d="M0 0 C3.45958808 3.45958808 5.61804134 6.31483985 8.125 10.4375 C8.80820313 11.54996094 9.49140625 12.66242187 10.1953125 13.80859375 C11.73601295 16.53316576 13.08706884 19.00989399 14 22 C13.67 22.99 13.34 23.98 13 25 C9.37 18.73 5.74 12.46 2 6 C1.67 15.24 1.34 24.48 1 34 C0.67 34 0.34 34 0 34 C0 22.78 0 11.56 0 0 Z " fill="#AFAFAF" transform="translate(139,49)"/>
<path d="M0 0 C6.32134434 -0.10465802 6.32134434 -0.10465802 9 2 C9.875 4.9375 9.875 4.9375 10 8 C9.01 9.485 9.01 9.485 8 11 C4.9375 11.25 4.9375 11.25 2 11 C0.33657163 9.33657163 0.63951903 7.2174291 0.4375 4.9375 C0.35371094 4.01839844 0.26992187 3.09929688 0.18359375 2.15234375 C0.09271484 1.08693359 0.09271484 1.08693359 0 0 Z " fill="#6FB02F" transform="translate(192,37)"/>
<path d="M0 0 C2.0625 -0.4375 2.0625 -0.4375 5 0 C8.61606691 2.83195135 11.53586557 5.60759671 13 10 C13.068991 12.06145107 13.08467727 14.12501401 13.0625 16.1875 C13.05347656 17.27417969 13.04445312 18.36085938 13.03515625 19.48046875 C13.02355469 20.31191406 13.01195312 21.14335938 13 22 C12.34 22 11.68 22 11 22 C11 21.01 11 20.02 11 19 C9.35 18.67 7.7 18.34 6 18 C6.33 17.34 6.66 16.68 7 16 C7.99 16 8.98 16 10 16 C10 13.36 10 10.72 10 8 C7.03 7.505 7.03 7.505 4 7 C4 5.35 4 3.7 4 2 C2.68 1.67 1.36 1.34 0 1 C0 0.67 0 0.34 0 0 Z " fill="#FCD023" transform="translate(220,44)"/>
<path d="M0 0 C3.4513866 3.58798501 3.37548885 6.52001305 3.3125 11.375 C3.30863281 12.66148438 3.30476562 13.94796875 3.30078125 15.2734375 C2.95147051 19.60126147 1.93562942 23.12874115 0 27 C-0.66 27 -1.32 27 -2 27 C-2.66 28.32 -3.32 29.64 -4 31 C-4.33 30.01 -4.66 29.02 -5 28 C-4.34 28 -3.68 28 -3 28 C-2.855625 26.700625 -2.71125 25.40125 -2.5625 24.0625 C-2.125 20.125 -2.125 20.125 -1 19 C-0.84379445 17.58672053 -0.74943827 16.1664541 -0.68359375 14.74609375 C-0.64169922 13.89208984 -0.59980469 13.03808594 -0.55664062 12.15820312 C-0.51732422 11.26037109 -0.47800781 10.36253906 -0.4375 9.4375 C-0.39431641 8.53580078 -0.35113281 7.63410156 -0.30664062 6.70507812 C-0.20021858 4.47021515 -0.09820012 2.23523692 0 0 Z " fill="#EF9E2B" transform="translate(237,49)"/>
<path d="M0 0 C0.89203125 0.01804688 1.7840625 0.03609375 2.703125 0.0546875 C3.71632812 0.08949219 3.71632812 0.08949219 4.75 0.125 C3.43 0.455 2.11 0.785 0.75 1.125 C0.75 2.445 0.75 3.765 0.75 5.125 C1.86375 4.96 2.9775 4.795 4.125 4.625 C10.37000051 4.53546594 14.39904235 9.13067822 18.75 13.125 C18.42 14.115 18.09 15.105 17.75 16.125 C17.19570312 15.55910156 16.64140625 14.99320313 16.0703125 14.41015625 C15.34585938 13.67667969 14.62140625 12.94320312 13.875 12.1875 C13.15570313 11.45660156 12.43640625 10.72570312 11.6953125 9.97265625 C8.06742135 6.52688815 4.39749512 6.81390087 -0.375 6.5625 C-1.12910156 6.51931641 -1.88320312 6.47613281 -2.66015625 6.43164062 C-4.52321888 6.3255168 -6.38658524 6.22474999 -8.25 6.125 C-8.58 4.805 -8.91 3.485 -9.25 2.125 C-6.03817851 0.21891902 -3.71117397 -0.09766247 0 0 Z " fill="#F0AC15" transform="translate(213.25,34.875)"/>
<path d="M0 0 C6.875 0.875 6.875 0.875 8 2 C9.34747084 2.23075082 10.70377565 2.41153063 12.0625 2.5625 C13.361875 2.706875 14.66125 2.85125 16 3 C16 4.98 16 6.96 16 9 C14.58249437 8.88490339 13.16598831 8.75746342 11.75 8.625 C10.56664062 8.52058594 10.56664062 8.52058594 9.359375 8.4140625 C6.87710438 7.97843223 5.13355252 7.33347033 3 6 C2.25 3.875 2.25 3.875 2 2 C1.34 2 0.68 2 0 2 C0 1.34 0 0.68 0 0 Z " fill="#F4BD10" transform="translate(197,79)"/>
<path d="M0 0 C7.11668257 -0.65895209 12.04403199 1.04638144 18 5 C19.99344342 6.90425132 21.41279645 8.72500824 23 11 C22 13 22 13 20 14 C19.71125 13.195625 19.4225 12.39125 19.125 11.5625 C18.26737432 8.8673532 18.26737432 8.8673532 16 8 C16 7.34 16 6.68 16 6 C15.21625 6.04125 14.4325 6.0825 13.625 6.125 C8.9473956 5.9637033 4.55916568 5.00914339 0 4 C0 2.68 0 1.36 0 0 Z " fill="#EF9B26" transform="translate(214,36)"/>
<path d="M0 0 C3.3 0 6.6 0 10 0 C10 1.32 10 2.64 10 4 C7.03 4 4.06 4 1 4 C1 5.65 1 7.3 1 9 C-0.65 9.33 -2.3 9.66 -4 10 C-4 9.34 -4 8.68 -4 8 C-4.99 8 -5.98 8 -7 8 C-7 7.34 -7 6.68 -7 6 C-5.68 6 -4.36 6 -3 6 C-2.690625 5.38125 -2.38125 4.7625 -2.0625 4.125 C-1.375 2.75 -0.6875 1.375 0 0 Z " fill="#F5E950" transform="translate(203,42)"/>
<path d="M0 0 C0.69029297 -0.01611328 1.38058594 -0.03222656 2.09179688 -0.04882812 C6.82905571 -0.05331842 10.00485553 0.90585328 14.0625 3.3125 C12.3125 3.9375 12.3125 3.9375 10.0625 4.3125 C9.48757812 3.99667969 8.91265625 3.68085937 8.3203125 3.35546875 C3.6548388 1.20031048 -1.91456957 1.87189207 -6.9375 2.3125 C-8.95276169 3.28137581 -10.95583966 4.2766321 -12.9375 5.3125 C-15.99681377 5.2820085 -18.93232635 4.86678758 -21.9375 4.3125 C-21.6075 6.6225 -21.2775 8.9325 -20.9375 11.3125 C-21.5975 11.3125 -22.2575 11.3125 -22.9375 11.3125 C-23.5975 9.0025 -24.2575 6.6925 -24.9375 4.3125 C-22.9375 2.3125 -22.9375 2.3125 -20.73046875 2.1875 C-19.0012841 2.27045938 -17.27211719 2.35378933 -15.54296875 2.4375 C-12.91762004 2.46105963 -12.91762004 2.46105963 -10.609375 1.33203125 C-7.07317687 -0.01730751 -3.73014591 -0.0173173 0 0 Z " fill="#F9DF90" transform="translate(213.9375,32.6875)"/>
<path d="M0 0 C0.66 0 1.32 0 2 0 C2.07404737 4.94788314 2.12855246 9.89544524 2.16479492 14.84375 C2.17990003 16.5277264 2.20038546 18.21166335 2.22631836 19.89550781 C2.26262721 22.31324993 2.27970847 24.73047292 2.29296875 27.1484375 C2.30845261 27.9036972 2.32393646 28.65895691 2.33988953 29.43710327 C2.34057617 31.56005859 2.34057617 31.56005859 2 35 C-1 37 -1 37 -3.6875 36.625 C-4.450625 36.41875 -5.21375 36.2125 -6 36 C-6 35.67 -6 35.34 -6 35 C-3.525 34.505 -3.525 34.505 -1 34 C-0.67 22.78 -0.34 11.56 0 0 Z " fill="#C3C3C2" transform="translate(251,49)"/>
<path d="M0 0 C5.9681991 2.58403345 9.58482472 7.71745923 12.9375 13.125 C15.25319702 19.30019205 15.1230716 27.77278275 12.98046875 33.9296875 C12.49513672 34.95449219 12.49513672 34.95449219 12 36 C11.67 36 11.34 36 11 36 C11.02094727 35.43603516 11.04189453 34.87207031 11.06347656 34.29101562 C11.14748501 31.69419751 11.19892229 29.09766638 11.25 26.5 C11.28351563 25.613125 11.31703125 24.72625 11.3515625 23.8125 C11.45696346 16.64523494 10.09768303 11.26138173 5.078125 5.9765625 C4.47484375 5.53054687 3.8715625 5.08453125 3.25 4.625 C1.390625 3.2265625 1.390625 3.2265625 0 2 C0 1.34 0 0.68 0 0 Z " fill="#FBD692" transform="translate(228,37)"/>
<path d="M0 0 C0.99 0.33 1.98 0.66 3 1 C2.34 3.97 1.68 6.94 1 10 C-1.25 10.75 -1.25 10.75 -4 11 C-7.3682914 8.47378145 -7.95502571 7.17989715 -9 3 C-6.03 3 -3.06 3 0 3 C0 2.01 0 1.02 0 0 Z " fill="#F9DF35" transform="translate(213,43)"/>
<path d="M0 0 C1.258125 -0.020625 2.51625 -0.04125 3.8125 -0.0625 C4.52019531 -0.07410156 5.22789062 -0.08570313 5.95703125 -0.09765625 C8 0 8 0 11 1 C10.65978036 4.17538332 9.97533396 5.02276865 7.5625 7.25 C5 9 5 9 3 9 C2.01 6.03 1.02 3.06 0 0 Z " fill="#F7DD36" transform="translate(196,63)"/>
<path d="M0 0 C1.98 0 3.96 0 6 0 C6.53394179 1.4117783 7.05165104 2.82970244 7.5625 4.25 C7.85253906 5.03890625 8.14257812 5.8278125 8.44140625 6.640625 C9.04522837 9.19103452 8.8473932 10.55322229 8 13 C7.67 12.01 7.34 11.02 7 10 C6.34 10 5.68 10 5 10 C5 8.68 5 7.36 5 6 C3.35 6 1.7 6 0 6 C0 4.02 0 2.04 0 0 Z " fill="#060606" transform="translate(102,37)"/>
<path d="M0 0 C1.33470263 2.66940525 0.57333449 4.13332753 0 7 C0.33 7.66 0.66 8.32 1 9 C0.06553465 11.03144641 -0.93224776 13.03533587 -2 15 C-2.66 14.67 -3.32 14.34 -4 14 C-4.61875 14.99 -5.2375 15.98 -5.875 17 C-6.57625 17.99 -7.2775 18.98 -8 20 C-8.66 20 -9.32 20 -10 20 C-10 19.34 -10 18.68 -10 18 C-9.34 18 -8.68 18 -8 18 C-7.9175 17.319375 -7.835 16.63875 -7.75 15.9375 C-6.96654816 12.86898029 -5.67964728 10.48556262 -4.0546875 7.78125 C-2.56049299 5.25772149 -1.28513809 2.63453308 0 0 Z " fill="#1E1E1E" transform="translate(173,41)"/>
<path d="M0 0 C2.33944736 0.28730055 4.6739143 0.61936779 7 1 C6.58682778 5.82034262 4.61980085 7.90992611 1 11 C0.34 11 -0.32 11 -1 11 C-1.02688151 9.35425434 -1.04634123 7.70838587 -1.0625 6.0625 C-1.07410156 5.14597656 -1.08570313 4.22945312 -1.09765625 3.28515625 C-1 1 -1 1 0 0 Z " fill="#F8C30E" transform="translate(217,45)"/>
<path d="M0 0 C0.33 0.66 0.66 1.32 1 2 C-3.29291377 8.3358438 -7.50512981 13.599759 -15 16 C-18.71270849 16.36502697 -22.28590494 16.31240052 -26 16 C-26 15.67 -26 15.34 -26 15 C-25.20335937 14.81824219 -24.40671875 14.63648437 -23.5859375 14.44921875 C-14.40395488 12.27101119 -8.9148932 10.39361651 -3 3 C-2.34 3 -1.68 3 -1 3 C-0.67 2.01 -0.34 1.02 0 0 Z " fill="#FBD58B" transform="translate(238,73)"/>
<path d="M0 0 C0.33 0.66 0.66 1.32 1 2 C0.33496094 3.75585937 0.33496094 3.75585937 -0.765625 5.84375 C-1.16136719 6.59527344 -1.55710938 7.34679687 -1.96484375 8.12109375 C-2.38894531 8.90613281 -2.81304687 9.69117187 -3.25 10.5 C-3.65863281 11.28503906 -4.06726563 12.07007812 -4.48828125 12.87890625 C-7.6175549 18.7450366 -7.6175549 18.7450366 -11 21 C-13.0625 20.875 -13.0625 20.875 -15 20 C-16.25 17.9375 -16.25 17.9375 -17 16 C-15.515 16.99 -15.515 16.99 -14 18 C-13.01 18 -12.02 18 -11 18 C-9.66290839 16.42467838 -9.66290839 16.42467838 -8.5546875 14.31640625 C-8.11769531 13.55392578 -7.68070313 12.79144531 -7.23046875 12.00585938 C-6.78316406 11.19955078 -6.33585938 10.39324219 -5.875 9.5625 C-4.97755945 7.979903 -4.07917128 6.39784286 -3.1796875 4.81640625 C-2.78507324 4.10943604 -2.39045898 3.40246582 -1.98388672 2.67407227 C-1 1 -1 1 0 0 Z " fill="#A8A8A8" transform="translate(170,58)"/>
<path d="M0 0 C1.32 0 2.64 0 4 0 C7 6.5 7 6.5 7 11 C5.35 10.67 3.7 10.34 2 10 C0.68373308 6.38026598 0 3.90432869 0 0 Z " fill="#080808" transform="translate(119,73)"/>
<path d="M0 0 C1.32 1.32 2.64 2.64 4 4 C2.125 10.875 2.125 10.875 1 12 C-0.66617115 12.04063832 -2.33388095 12.042721 -4 12 C-4 11.01 -4 10.02 -4 9 C-3.34 9 -2.68 9 -2 9 C-1.7834375 7.329375 -1.7834375 7.329375 -1.5625 5.625 C-1 2 -1 2 0 0 Z " fill="#191919" transform="translate(89,71)"/>
<path d="M0 0 C1.0326802 2.78823655 1.04509293 3.8677274 0.0625 6.75 C-0.288125 7.4925 -0.63875 8.235 -1 9 C-2.65 9 -4.3 9 -6 9 C-6.33 7.35 -6.66 5.7 -7 4 C-4.69 2.68 -2.38 1.36 0 0 Z " fill="#F6DD37" transform="translate(211,68)"/>
<path d="M0 0 C2 1 2 1 2.67578125 2.99609375 C2.88589844 3.80175781 3.09601563 4.60742188 3.3125 5.4375 C4.42398004 9.28477661 4.42398004 9.28477661 7.6875 11.5625 C8.450625 11.706875 9.21375 11.85125 10 12 C9.67 10.02 9.34 8.04 9 6 C9.66 6 10.32 6 11 6 C11.38063221 8.3260857 11.71269945 10.66055264 12 13 C11 14 11 14 7.6875 14.0625 C4 13 4 13 2.6484375 11.32421875 C0.67257486 7.55017895 -0.54114463 4.32915704 0 0 Z " fill="#9D9D9D" transform="translate(116,72)"/>
<path d="M0 0 C3.9115468 1.47958509 5.2274524 3.53957471 7.25 7.125 C8.03117188 8.49011719 8.03117188 8.49011719 8.828125 9.8828125 C9.40820312 10.93082031 9.40820312 10.93082031 10 12 C10.99 11.67 11.98 11.34 13 11 C12.34 12.65 11.68 14.3 11 16 C10.01 16 9.02 16 8 16 C7.566875 15.113125 7.13375 14.22625 6.6875 13.3125 C5.09550421 10.0832945 5.09550421 10.0832945 3.4375 7.4375 C2.01142149 5.01936687 0.97599904 2.62768974 0 0 Z " fill="#8E8E8E" transform="translate(148,53)"/>
<path d="M0 0 C0.66 0 1.32 0 2 0 C1.71715982 1.77226453 1.42339502 3.542788 1.125 5.3125 C0.96257812 6.29863281 0.80015625 7.28476562 0.6328125 8.30078125 C0 11 0 11 -2 14 C-2.33 12.68 -2.66 11.36 -3 10 C-2.34 10 -1.68 10 -1 10 C-1.33 9.01 -1.66 8.02 -2 7 C-3.32 8.98 -4.64 10.96 -6 13 C-7 11 -7 11 -6.1875 8.4375 C-5 6 -5 6 -3 5 C-2.505 4.154375 -2.01 3.30875 -1.5 2.4375 C-1.005 1.633125 -0.51 0.82875 0 0 Z " fill="#202020" transform="translate(98,53)"/>
<path d="M0 0 C0.99 0 1.98 0 3 0 C2.731875 0.495 2.46375 0.99 2.1875 1.5 C-1.10369687 8.42883552 -2.54657587 14.3699664 -3 22 C-3.33 22 -3.66 22 -4 22 C-4.738041 6.07061503 -4.738041 6.07061503 0 0 Z " fill="#F7E485" transform="translate(190,44)"/>
<path d="M0 0 C-4.30769231 4.92307692 -4.30769231 4.92307692 -7.8125 5.3125 C-8.8953125 5.1578125 -8.8953125 5.1578125 -10 5 C-9.67 3.35 -9.34 1.7 -9 0 C-2.25 -1.125 -2.25 -1.125 0 0 Z " fill="#F29C0C" transform="translate(223,81)"/>
<path d="M0 0 C0.33 0 0.66 0 1 0 C1.05428973 2.22889496 1.09292338 4.45817471 1.125 6.6875 C1.14820313 7.92886719 1.17140625 9.17023437 1.1953125 10.44921875 C1.01032021 13.81237857 0.45767895 15.9985587 -1 19 C-3.09749995 16.64031256 -3.96905704 15.45383006 -4.1875 12.25 C-4.125625 11.5075 -4.06375 10.765 -4 10 C-4.66 9.67 -5.32 9.34 -6 9 C-4.68 9 -3.36 9 -2 9 C-2 9.99 -2 10.98 -2 12 C-1.34 12 -0.68 12 0 12 C0 8.04 0 4.08 0 0 Z " fill="#F7C219" transform="translate(233,54)"/>
<path d="M0 0 C2.64 0 5.28 0 8 0 C8.66 1.65 9.32 3.3 10 5 C6.7 4.67 3.4 4.34 0 4 C0 2.68 0 1.36 0 0 Z " fill="#ED9508" transform="translate(214,36)"/>
<path d="M0 0 C0 1.65 0 3.3 0 5 C-2.64 5 -5.28 5 -8 5 C-8.33 3.68 -8.66 2.36 -9 1 C-5.8035914 -0.06546953 -3.34252724 -0.07427838 0 0 Z " fill="#F5BE13" transform="translate(213,36)"/>
<path d="M0 0 C2.475 0.495 2.475 0.495 5 1 C5.33 2.32 5.66 3.64 6 5 C3.525 6.485 3.525 6.485 1 8 C0 7 0 7 -0.0625 3.4375 C-0.041875 2.303125 -0.02125 1.16875 0 0 Z " fill="#F6C107" transform="translate(216,70)"/>
<path d="M0 0 C2.1640625 0.0234375 2.1640625 0.0234375 4.625 0.375 C5.85089844 0.54128906 5.85089844 0.54128906 7.1015625 0.7109375 C7.72804687 0.80632813 8.35453125 0.90171875 9 1 C9 1.66 9 2.32 9 3 C6.36 2.67 3.72 2.34 1 2 C1.33 4.31 1.66 6.62 2 9 C1.34 9 0.68 9 0 9 C-0.66 6.69 -1.32 4.38 -2 2 C-1.34 1.34 -0.68 0.68 0 0 Z " fill="#BDEEBF" transform="translate(191,35)"/>
<path d="M0 0 C0.33 1.32 0.66 2.64 1 4 C-1.31 3.67 -3.62 3.34 -6 3 C-7.65 5.31 -9.3 7.62 -11 10 C-11.33 9.34 -11.66 8.68 -12 8 C-8.65536842 1.42606896 -7.62331984 -0.16572434 0 0 Z " fill="#B9B9BA" transform="translate(182,35)"/>
<path d="M0 0 C3.125 0.1875 3.125 0.1875 6.125 2.1875 C6.82552461 4.850563 6.90244818 7.42785737 7.125 10.1875 C5.125 9.1875 5.125 9.1875 4 6.125 C3.71125 5.155625 3.4225 4.18625 3.125 3.1875 C0.155 2.6925 0.155 2.6925 -2.875 2.1875 C-3.205 2.8475 -3.535 3.5075 -3.875 4.1875 C-3.875 0.25271739 -3.875 0.25271739 0 0 Z " fill="#A3A3A3" transform="translate(104.875,34.8125)"/>
<path d="M0 0 C0.33 0 0.66 0 1 0 C1 4.62 1 9.24 1 14 C0.34 13.67 -0.32 13.34 -1 13 C-1.484375 11.07421875 -1.484375 11.07421875 -1.75 8.6875 C-1.84796875 7.90761719 -1.9459375 7.12773438 -2.046875 6.32421875 C-1.99392264 3.69866432 -1.32990442 2.23526243 0 0 Z " fill="#F9C109" transform="translate(191,55)"/>
<path d="M0 0 C4.11722438 1.4971725 6.15200193 4.58064172 8.75 8 C7.76 8 6.77 8 5.75 8 C5.110625 7.175 4.47125 6.35 3.8125 5.5 C3.131875 4.675 2.45125 3.85 1.75 3 C0.43 3 -0.89 3 -2.25 3 C-2.91 3.66 -3.57 4.32 -4.25 5 C-4.25 3.68 -4.25 2.36 -4.25 1 C-2.25 0 -2.25 0 0 0 Z " fill="#AEAEAE" transform="translate(248.25,35)"/>
<path d="M0 0 C4.92127034 -0.16682272 8.50343896 -0.24828052 13 2 C13 2.66 13 3.32 13 4 C3.40546697 3.40546697 3.40546697 3.40546697 0 0 Z " fill="#EEC739" transform="translate(200,84)"/>
<path d="M0 0 C2.43194894 2.43194894 3.33893831 4.71418779 4.6875 7.875 C5.14511719 8.92429687 5.60273437 9.97359375 6.07421875 11.0546875 C7.00062999 14.00200428 7.12150295 15.18604713 6 18 C3.1248748 12.09622349 1.16194152 6.46712188 0 0 Z " fill="#BABABA" transform="translate(111,40)"/>
<path d="M0 0 C3.70722086 3.19588005 5.40645479 6.38710598 7 11 C6.67 11.99 6.34 12.98 6 14 C4.98915735 12.42356682 3.99169489 10.8385483 3 9.25 C2.443125 8.36828125 1.88625 7.4865625 1.3125 6.578125 C0 4 0 4 0 0 Z " fill="#949494" transform="translate(146,60)"/>
<path d="M0 0 C0.12375 0.639375 0.2475 1.27875 0.375 1.9375 C0.684375 2.9584375 0.684375 2.9584375 1 4 C1.66 4.33 2.32 4.66 3 5 C2.67 7.64 2.34 10.28 2 13 C1.06576355 9.98968256 0.95550089 9.13349732 2 6 C-1.0109362 8.0072908 -1.63016497 8.83884224 -3 12 C-4 10 -4 10 -3.22265625 7.6171875 C-2.83980469 6.71226563 -2.45695312 5.80734375 -2.0625 4.875 C-1.68222656 3.96492188 -1.30195312 3.05484375 -0.91015625 2.1171875 C-0.60980469 1.41851562 -0.30945313 0.71984375 0 0 Z " fill="#393939" transform="translate(98,47)"/>
<path d="M0 0 C1.5 1.3125 1.5 1.3125 3 3 C3 3.99 3 4.98 3 6 C3.99 6.33 4.98 6.66 6 7 C4.68 7.33 3.36 7.66 2 8 C1.67 9.32 1.34 10.64 1 12 C0.01 9.69 -0.98 7.38 -2 5 C-1.01 5 -0.02 5 1 5 C0.67 3.35 0.34 1.7 0 0 Z " fill="#343434" transform="translate(153,63)"/>
<path d="M0 0 C1.65 0 3.3 0 5 0 C5 1.98 5 3.96 5 6 C3.35 5.67 1.7 5.34 0 5 C0 3.35 0 1.7 0 0 Z " fill="#3CAA43" transform="translate(194,39)"/>
<path d="M0 0 C-0.33 0.99 -0.66 1.98 -1 3 C-12.385 2.505 -12.385 2.505 -24 2 C-24 1.67 -24 1.34 -24 1 C-20.37503356 0.83259796 -16.7500216 0.66620297 -13.125 0.5 C-12.09246094 0.45230469 -11.05992187 0.40460937 -9.99609375 0.35546875 C-9.00996094 0.31035156 -8.02382813 0.26523437 -7.0078125 0.21875 C-6.09660645 0.17685547 -5.18540039 0.13496094 -4.24658203 0.09179688 C-2.83190448 0.03399218 -1.41585803 0 0 0 Z " fill="#999999" transform="translate(364,41)"/>
<path d="M0 0 C3.3125 0.1875 3.3125 0.1875 7 1 C8.92171842 3.41764576 10 4.88467214 10 8 C9.34 8 8.68 8 8 8 C7.566875 7.195625 7.13375 6.39125 6.6875 5.5625 C5.23212941 2.75717669 5.23212941 2.75717669 2.3125 2.1875 C1.1678125 2.0946875 1.1678125 2.0946875 0 2 C0 1.34 0 0.68 0 0 Z " fill="#B8B8B8" transform="translate(134,35)"/>
<path d="M0 0 C1.5625 1.25 1.5625 1.25 3 3 C2.6875 5.1875 2.6875 5.1875 2 7 C1.34 6.67 0.68 6.34 0 6 C-0.33 6.66 -0.66 7.32 -1 8 C-1.66 6.35 -2.32 4.7 -3 3 C-2.34 3 -1.68 3 -1 3 C-0.67 2.01 -0.34 1.02 0 0 Z " fill="#2B2B2B" transform="translate(145,48)"/>
<path d="M0 0 C-0.99 0 -1.98 0 -3 0 C-2.773125 0.598125 -2.54625 1.19625 -2.3125 1.8125 C-2.209375 2.534375 -2.10625 3.25625 -2 4 C-3.4375 5.75 -3.4375 5.75 -5 7 C-5.33 5.35 -5.66 3.7 -6 2 C-6.99 1.67 -7.98 1.34 -9 1 C-5.57367167 -0.61798838 -3.61944899 -1.34053666 0 0 Z " fill="#D3C836" transform="translate(207,37)"/>
<path d="M0 0 C0.144375 0.598125 0.28875 1.19625 0.4375 1.8125 C0.8872439 3.56150404 1.42892341 5.28677023 2 7 C0.68 7 -0.64 7 -2 7 C-2 6.34 -2 5.68 -2 5 C-2.99 5 -3.98 5 -5 5 C-5 4.34 -5 3.68 -5 3 C-3.68 3 -2.36 3 -1 3 C-0.67 2.01 -0.34 1.02 0 0 Z " fill="#C9D850" transform="translate(201,45)"/>
<path d="M0 0 C0.33 0.66 0.66 1.32 1 2 C-0.98 4.64 -2.96 7.28 -5 10 C-5.99 9.67 -6.98 9.34 -8 9 C-6.38405168 6.95880212 -4.7143618 4.95927063 -3 3 C-2.34 3 -1.68 3 -1 3 C-0.67 2.01 -0.34 1.02 0 0 Z " fill="#FEDA94" transform="translate(238,73)"/>
<path d="M0 0 C3.14958831 3.42346555 3.56179109 6.44262737 4 11 C2.35 10.67 0.7 10.34 -1 10 C-0.01 9.67 0.98 9.34 2 9 C1.67 8.2575 1.34 7.515 1 6.75 C0 4 0 4 0 0 Z " fill="#313131" transform="translate(122,73)"/>
<path d="M0 0 C0.66 0 1.32 0 2 0 C1.44894091 3.9492568 0.61064629 7.34920174 -1 11 C-2.1875 9.4375 -2.1875 9.4375 -3 7 C-1.625 3.25 -1.625 3.25 0 0 Z " fill="#959595" transform="translate(89,65)"/>
<path d="M0 0 C0.66 0 1.32 0 2 0 C2.33 2.31 2.66 4.62 3 7 C1.35 7.33 -0.3 7.66 -2 8 C-2 7.34 -2 6.68 -2 6 C-1.01 6 -0.02 6 1 6 C0.67 4.02 0.34 2.04 0 0 Z " fill="#A5A5A5" transform="translate(125,78)"/>
<path d="M0 0 C0.99 0 1.98 0 3 0 C3 1.65 3 3.3 3 5 C1.68 5.33 0.36 5.66 -1 6 C-0.67 4.02 -0.34 2.04 0 0 Z " fill="#121212" transform="translate(162,61)"/>
<path d="M0 0 C1.98 0.495 1.98 0.495 4 1 C2.515 4.465 2.515 4.465 1 8 C0.34 8 -0.32 8 -1 8 C-1.125 2.25 -1.125 2.25 0 0 Z " fill="#F3DC3B" transform="translate(199,52)"/>
<path d="M0 0 C1 2 1 2 0.1875 4.9375 C-1 8 -1 8 -3 11 C-3.66 11 -4.32 11 -5 11 C-5 10.34 -5 9.68 -5 9 C-4.34 9 -3.68 9 -3 9 C-2.87625 8.2575 -2.7525 7.515 -2.625 6.75 C-2.04513299 4.19858515 -1.26291261 2.2732427 0 0 Z " fill="#2F2F2F" transform="translate(168,50)"/>
<path d="M0 0 C3.96 0 7.92 0 12 0 C12 0.99 12 1.98 12 3 C10.68 3 9.36 3 8 3 C8 2.34 8 1.68 8 1 C5.36 1 2.72 1 0 1 C0 0.67 0 0.34 0 0 Z " fill="#252525" transform="translate(352,38)"/>
<path d="M0 0 C1.98 0 3.96 0 6 0 C6.66 1.98 7.32 3.96 8 6 C7.01 5.67 6.02 5.34 5 5 C5.33 4.01 5.66 3.02 6 2 C4.02 2 2.04 2 0 2 C0 1.34 0 0.68 0 0 Z " fill="#2F2F2F" transform="translate(102,37)"/>
<path d="M0 0 C0.33 1.32 0.66 2.64 1 4 C0.34 4 -0.32 4 -1 4 C-0.34 5.98 0.32 7.96 1 10 C0.01 10.495 0.01 10.495 -1 11 C-2.38550197 8.22899606 -2.1877467 6.0665294 -2 3 C-1.34 2.01 -0.68 1.02 0 0 Z " fill="#0C0C0C" transform="translate(92,65)"/>
<path d="M0 0 C0.99 0 1.98 0 3 0 C3.33 1.98 3.66 3.96 4 6 C3.01 6 2.02 6 1 6 C0.67 4.02 0.34 2.04 0 0 Z " fill="#0A0A0A" transform="translate(150,62)"/>
<path d="M0 0 C1 2 1 2 0.0625 5.125 C-0.288125 6.07375 -0.63875 7.0225 -1 8 C-1.99 7.67 -2.98 7.34 -4 7 C-2.92598892 4.08482708 -2.22189824 2.22189824 0 0 Z " fill="#030303" transform="translate(102,44)"/>
<path d="M0 0 C2.475 0.99 2.475 0.99 5 2 C5 2.66 5 3.32 5 4 C5.66 4 6.32 4 7 4 C7.33 4.99 7.66 5.98 8 7 C4.63718422 5.55879324 2.4480582 3.71035015 0 1 C0 0.67 0 0.34 0 0 Z " fill="#F5C847" transform="translate(192,77)"/>
<path d="M0 0 C2.96404505 2.80804268 5.44499019 5.18315774 7 9 C3.73539027 7.19587357 2.11070205 6.16605307 0 3 C0 2.01 0 1.02 0 0 Z " fill="#8F8F8F" transform="translate(269,71)"/>
<path d="M0 0 C1.98 0.99 1.98 0.99 4 2 C4 2.66 4 3.32 4 4 C4.66 4 5.32 4 6 4 C5.67 5.32 5.34 6.64 5 8 C0 2.25 0 2.25 0 0 Z " fill="#A7A7A7" transform="translate(263,65)"/>
<path d="M0 0 C0.99 0.495 0.99 0.495 2 1 C2 1.66 2 2.32 2 3 C2.66 3 3.32 3 4 3 C4.66 4.65 5.32 6.3 6 8 C3.5625 6.8125 3.5625 6.8125 1 5 C0.1875 2.3125 0.1875 2.3125 0 0 Z " fill="#919191" transform="translate(259,58)"/>
<path d="M0 0 C0.99 0.66 1.98 1.32 3 2 C3 2.66 3 3.32 3 4 C2.01 4 1.02 4 0 4 C-0.33 4.99 -0.66 5.98 -1 7 C-1.99 5.68 -2.98 4.36 -4 3 C-3.01 3 -2.02 3 -1 3 C-0.67 2.01 -0.34 1.02 0 0 Z " fill="#2F2F2F" transform="translate(260,51)"/>
<path d="M0 0 C0.66 0.33 1.32 0.66 2 1 C2.625 3.5625 2.625 3.5625 3 6 C1.68 6.33 0.36 6.66 -1 7 C-0.67 4.69 -0.34 2.38 0 0 Z " fill="#EC9210" transform="translate(235,48)"/>
<path d="M0 0 C4 1 4 1 5.8125 2.875 C6.204375 3.57625 6.59625 4.2775 7 5 C6.67 5.99 6.34 6.98 6 8 C4.02 5.36 2.04 2.72 0 0 Z " fill="#9F9F9F" transform="translate(255,44)"/>
<path d="M0 0 C1.65 0 3.3 0 5 0 C5.33 0.66 5.66 1.32 6 2 C4.68 2 3.36 2 2 2 C2 3.65 2 5.3 2 7 C0.5393715 4.35261084 0 3.10551666 0 0 Z " fill="#65BA75" transform="translate(192,37)"/>
</svg>
